<?xml version="1.0" encoding="UTF-8" standalone="no"?>
<!-- Created with Inkscape (http://www.inkscape.org/) -->

<svg
   xmlns:dc="http://purl.org/dc/elements/1.1/"
   xmlns:cc="http://creativecommons.org/ns#"
   xmlns:rdf="http://www.w3.org/1999/02/22-rdf-syntax-ns#"
   xmlns:svg="http://www.w3.org/2000/svg"
   xmlns="http://www.w3.org/2000/svg"
   xmlns:sodipodi="http://sodipodi.sourceforge.net/DTD/sodipodi-0.dtd"
   xmlns:inkscape="http://www.inkscape.org/namespaces/inkscape"
   id="svg2"
   version="1.1"
   inkscape:version="0.92.2 5c3e80d, 2017-08-06"
   width="209.35445"
   height="60.982201"
   xml:space="preserve"
   sodipodi:docname="Bates_College_wordmark.svg"><metadata
     id="metadata8"><rdf:RDF><cc:Work
         rdf:about=""><dc:format>image/svg+xml</dc:format><dc:type
           rdf:resource="http://purl.org/dc/dcmitype/StillImage" /><dc:title></dc:title></cc:Work></rdf:RDF></metadata><defs
     id="defs6"><clipPath
       clipPathUnits="userSpaceOnUse"
       id="clipPath16"><path
         d="M 0,0 H 612 V 792 H 0 Z"
         id="path18"
         inkscape:connector-curvature="0" /></clipPath><clipPath
       clipPathUnits="userSpaceOnUse"
       id="clipPath62"><path
         d="M -21.38,216 H 612 V 594 H -21.38 Z"
         id="path64"
         inkscape:connector-curvature="0" /></clipPath><clipPath
       clipPathUnits="userSpaceOnUse"
       id="clipPath70"><path
         d="M -8.245,212.943 H 640.652 V 627.51 H -8.245 Z"
         id="path72"
         inkscape:connector-curvature="0" /></clipPath><clipPath
       clipPathUnits="userSpaceOnUse"
       id="clipPath82"><path
         d="M 27.9,735.4 H 136.52 V 762 H 27.9 Z"
         id="path84"
         inkscape:connector-curvature="0" /></clipPath><clipPath
       clipPathUnits="userSpaceOnUse"
       id="clipPath134"><path
         d="M -13,0 H 172.547 V 180 H -13 Z"
         id="path136"
         inkscape:connector-curvature="0" /></clipPath><clipPath
       clipPathUnits="userSpaceOnUse"
       id="clipPath142"><path
         d="M -5.368,-0.697 H 172.547 V 180.698 H -5.368 Z"
         id="path144"
         inkscape:connector-curvature="0" /></clipPath></defs><sodipodi:namedview
     pagecolor="#ffffff"
     bordercolor="#666666"
     borderopacity="1"
     objecttolerance="10"
     gridtolerance="10"
     guidetolerance="10"
     inkscape:pageopacity="0"
     inkscape:pageshadow="2"
     inkscape:window-width="1680"
     inkscape:window-height="952"
     id="namedview4"
     showgrid="false"
     fit-margin-top="0"
     fit-margin-left="0"
     fit-margin-right="0"
     fit-margin-bottom="0"
     inkscape:zoom="1"
     inkscape:cx="361.07345"
     inkscape:cy="-126.96532"
     inkscape:window-x="0"
     inkscape:window-y="0"
     inkscape:window-maximized="1"
     inkscape:current-layer="g986" /><g
     id="g10"
     inkscape:groupmode="layer"
     inkscape:label="sportsbook0607"
     transform="matrix(1.25,0,0,-1.25,18.370195,1024.4244)"><g
       id="g1091"><g
         id="g1068"><g
           id="g1046"><g
             id="g1025"><g
               id="g1005"><g
                 id="g986"><g
                   id="g1198"
                   transform="matrix(0.93440709,0,0,0.93440709,4.5289031,52.155983)"><g
                     transform="matrix(2.2916723,0,0,2.2916723,18.982618,-995.56132)"
                     id="g1140"><path
                       d="m 22.385746,784.84784 h -2.479301 v 1.69347 c 2.637684,0.5848 4.467209,2.93009 5.052008,5.50076 h 1.596012 v -5.50076 h 3.384927 v -1.69347 h -3.384927 v -9.5375 c 0,-1.59601 0.227422,-2.2133 1.039642,-2.2133 0.586828,0 1.401079,0.45485 2.020397,0.91172 l 0.51982,-1.13914 c -1.334071,-1.17366 -2.962572,-2.11583 -4.459087,-2.11583 -2.278277,0 -3.289491,1.33407 -3.289491,3.41741 v 10.67664"
                       style="fill:#b20d35;fill-opacity:1;fill-rule:nonzero;stroke:none;stroke-width:2.03055"
                       id="path102"
                       inkscape:connector-curvature="0" /><path
                       d="m 56.401518,782.14517 c -0.324888,2.37778 -1.301583,3.51692 -3.157505,3.51692 -1.36656,0 -2.375743,-0.84674 -2.375743,-1.95339 0,-3.22249 7.519126,-2.57068 7.519126,-7.74858 0,-3.87226 -2.702662,-5.20633 -5.957634,-5.20633 -1.593981,0 -3.092527,0.32489 -4.329132,0.84471 v 4.16669 h 1.36656 c 0,-2.5057 1.498546,-3.64484 3.354469,-3.64484 1.561492,0 2.44072,0.84674 2.44072,2.01836 0,3.35244 -7.324193,2.57068 -7.324193,7.909 0,2.96257 2.148322,4.98094 5.273338,4.98094 1.433568,0 2.962572,-0.25991 4.556554,-0.71476 v -4.16872 h -1.36656"
                       style="fill:#b20d35;fill-opacity:1;fill-rule:nonzero;stroke:none;stroke-width:2.03055"
                       id="path104"
                       inkscape:connector-curvature="0" /><path
                       d="m 9.0531554,774.93469 c -0.032489,0.20102 -0.048733,0.41423 -0.048733,0.63962 0,1.17163 0.2599104,1.9209 2.0833436,2.73515 l 1.985878,0.84471 v -4.55655 c -1.009183,-0.78176 -1.693478,-1.23661 -2.507729,-1.23661 -0.8345557,0 -1.356407,0.62338 -1.5127594,1.57368 L 4.8438255,774.1773 c 0.099497,-2.06913 1.4112322,-3.42148 3.4763014,-3.42148 1.4965153,0 2.9950611,0.58683 4.8509841,2.50773 0,-1.82344 1.074161,-2.50773 2.115833,-2.50773 1.009183,0 2.473209,0.81425 4.166688,2.08334 l -0.489363,1.10868 c -0.422354,-0.3594 -0.911716,-0.58683 -1.171627,-0.58683 -0.357377,0 -0.552309,0.35738 -0.552309,1.36656 v 8.33338 c 0,2.63769 -1.531035,3.97176 -4.623563,3.97176 l -0.0081,-0.004 c -2.304674,-0.006 -4.3738042,-0.63151 -6.9749386,-2.84684 l 0.8244032,-1.34016 c 1.2914298,1.13508 2.8346477,2.15848 4.1890244,2.17269 h 0.113711 c 1.596012,0 2.312796,-0.74724 2.312796,-2.27828 v -2.2133 l -2.312796,-0.84674 c -5.2733382,-1.98587 -5.9231142,-3.1575 -5.9231142,-5.24084 0,-0.0873 0.00203,-0.1726 0.00609,-0.25788 l 4.2093299,0.75739"
                       style="fill:#b20d35;fill-opacity:1;fill-rule:nonzero;stroke:none;stroke-width:2.03055"
                       id="path106"
                       inkscape:connector-curvature="0" /><path
                       d="m -2.37681,785.37172 c -0.4731181,-1.728 -1.9736945,-2.63363 -4.2621242,-2.63363 h -1.1574135 v 7.60644 h 1.7767312 c 1.443721,0 2.2985825,-0.38377 2.9483585,-1.12086 0.5604317,-0.61729 0.8548615,-1.50261 0.8548615,-2.56458 0,-0.46906 -0.054825,-0.89954 -0.1604135,-1.28737 l 4.0793748,-1.07416 c 0.5259124,0.78379 0.7025702,1.68738 0.7025702,2.62753 0,3.12501 -2.35949894,4.95251 -6.3982627,4.95251 -1.6508371,0 -4.2458798,-0.11777 -6.3982623,-0.11777 -1.445752,0 -2.861045,0.0589 -4.304766,0.11777 v -1.23864 c 2.034611,0 2.152383,-0.47108 2.152383,-1.82749 v -14.62199 c 0,-1.35641 -0.117772,-1.8275 -2.152383,-1.8275 v -1.23863 c 1.443721,0.0589 2.859014,0.11777 4.304766,0.11777 2.0041523,0 4.4225373,-0.11777 6.3698346,-0.11777 2.7046925,0 4.79818942,0.83862 5.9982444,2.37371 l -3.9737861,1.36047 c -0.6315011,-1.5351 -2.0285194,-2.20112 -3.8458616,-2.20112 h -1.953389 v 8.54862 h 1.8051589 c 2.7717006,0 4.3636517,-1.67927 4.3636517,-4.21542 0,-0.84268 -0.1279246,-1.54931 -0.36956,-2.13208 l 3.9737861,-1.36047 c 0.7350591,0.94218 1.1350774,2.14629 1.1350774,3.57986 0,2.65393 -1.7970367,4.68854 -4.9220529,5.04186 v 0.0589 c 1.82140321,0.46094 2.9036863,1.21021 3.5128513,2.1199 l -4.0793748,1.07416"
                       style="fill:#b20d35;fill-opacity:1;fill-rule:nonzero;stroke:none;stroke-width:2.03055"
                       id="path108"
                       inkscape:connector-curvature="0" /><path
                       d="m 38.252463,781.13802 h 2.956481 c -0.03249,2.60317 -0.55231,4.52407 -2.700632,4.52407 -1.888411,0 -2.637684,-1.69348 -2.637684,-4.52407 h 2.381835 l -0.03046,-1.49855 h -2.351377 c 0.09747,-3.4499 1.693479,-5.95763 4.459088,-5.95763 1.758456,0 3.257002,0.6843 4.786006,2.34326 l 0.911717,-1.20412 c -3.02755,-3.15751 -4.915962,-4.06719 -7.551616,-4.06719 -3.711845,0 -6.771883,2.73312 -6.771883,7.8765 0,5.66321 3.319949,8.39836 7.031794,8.39836 4.264155,0 6.639898,-2.80013 6.639898,-7.38918 h -7.153627 l 0.03046,1.49855"
                       style="fill:#b20d35;fill-opacity:1;fill-rule:nonzero;stroke:none;stroke-width:2.03055"
                       id="path110"
                       inkscape:connector-curvature="0" /></g></g></g></g></g></g></g></g></g></svg>