<svg xmlns="http://www.w3.org/2000/svg" viewBox="0 0 648.67 704.2"><title>Asset 1seal-color</title><path d="M493.08,270.68v-.27c-.23-22.09-.42-36.31-.34-48.28l0-5.27-337.71,0,0,5.27c.08,12-.11,26.26-.34,48.41v.12c-.57,55.42-.11,131.6,2,153.29,2.24,23.09,6,61.75,28.67,100.11,26.43,44.68,72.47,78.11,136.87,99.37l1.64.54,1.64-.54C390,602.19,436,568.75,462.42,524.08c22.69-38.37,26.43-77,28.67-100.11C493.18,402.34,493.64,326.13,493.08,270.68Z" style="fill:#c9cacc"/><path d="M484.65,224.94,163.2,225c0,12.15-.15,25.25-.36,45.8-.51,50.06-.18,130.4,2,152.42,4.71,48.67,15.74,144.49,159.14,192.3C467.31,567.67,478.33,471.86,483,423.2c2.13-22,2.47-102.37,2-152.43C484.79,250.2,484.61,237.09,484.65,224.94Z" style="fill:#00529c"/><path d="M387.06,256.52l-20.37,113L337,365.18l-1.42-79.32L352,289.14l-27.64-48.28-27.64,48.28L313,285.85l-1.42,79.32-29.66,4.3-20.37-113-27.18,52.94,14.74-3.1,14.73,97.33,7-3.12c4.37-1.95,15.54-6.48,24.89-6.48,4.71,0,8.24,1.16,10.48,3.45,2.4,2.45,3.56,6.41,3.45,11.74l-2.72,100h34.74L339,409.33c-.11-5.38,1-9.36,3.44-11.8,2.24-2.29,5.77-3.45,10.48-3.45,9.35,0,20.52,4.53,24.88,6.48l7,3.12,14.74-97.33,14.73,3.1Z" style="fill:#efb310"/><path d="M389.29,271.44l-18.67,103.5-38.36-5.56-1.6-89.45,11.8,2.37-18.15-31.7-18.15,31.7,11.8-2.37-1.6,89.45L278,374.94l-18.67-103.5-16,31.19,9.81-2.06,14.55,96.11,1.2-.54c5.78-2.58,16.94-6.9,26.86-6.9,6.06,0,10.75,1.65,13.93,4.9,3.34,3.41,5,8.54,4.83,15.25l-2.59,95h24.8l-2.59-95c-.14-6.73,1.48-11.88,4.83-15.29,3.19-3.25,7.87-4.9,13.93-4.9,9.92,0,21.08,4.32,26.85,6.9l1.2.54,14.55-96.11,9.81,2.06Z" style="fill:#ffdf1b"/><path d="M391.45,510.75c-17.74,0-33.63-20.17-67.63-20.17h-.14c-34,0-49.89,20.17-67.63,20.17s-49.24-23.43-66.34-23.43a25,25,0,0,0-11.31,2.82,179.34,179.34,0,0,0,15.13,31.47c17.83-2.7,43.51,18.53,62.51,18.53,27.53,0,33.63-20.17,67.63-20.17h.14c34,0,36.82,20.17,67.63,20.17,19.12,0,45-21.49,62.83-18.49a179.31,179.31,0,0,0,15.1-31.37,25,25,0,0,0-11.59-3C440.69,487.31,409.19,510.75,391.45,510.75Z" style="fill:#fff"/><path d="M324.41,550.37h-.13c-32.74,0-38.62,20.17-65.13,20.17-11.69,0-25.29-8.68-38-14.24,14.67,14.45,33.34,28.15,57.14,40.26,13.12-5.9,22.84-16,46-16h.13c23.37,0,31.46,10.27,45,16.15,23.51-11.94,42-25.44,56.62-39.67-12.29,5.56-25.25,13.52-36.46,13.52C359.87,570.54,357.15,550.37,324.41,550.37Z" style="fill:#fff"/><path d="M588.29,195.42A322.09,322.09,0,0,0,429.21,77.52L414,72.34l5.37,15.15c1.11,3.15,4.63,9.6,7.64,14.65l1.44,18.76.15,9-5.13,8.9L412.8,152.25l-12.88,10.31,12.32,5A234.11,234.11,0,0,1,489.83,550c-48.88,48.88-107.63,75.8-165.41,75.8S207.72,598.9,158.84,550A234.11,234.11,0,0,1,237.4,167.16l13.32-5.32-14.41-10.16-9.59-12.09-5.36-9.09-.63-16.38,1.46-19.37L228,74.37l-14.34,5.19A323.75,323.75,0,0,0,0,384.52c0,97.54,43.45,189,119.21,251.06l.73.59.92.2C227.09,659.19,246.1,662.86,273,662.86c5,0,10.27-.12,16.35-.27,8.45-.2,19-.45,32.91-.45,74.6,0,105.79-5.23,202.47-23.38l1-.18.76-.6a328.26,328.26,0,0,0,89-110.6,320.53,320.53,0,0,0,33.18-142.85C648.67,316,627.79,250.61,588.29,195.42Z" style="fill:#efb310"/><path d="M426.71,84.89c.87,2.45,4.3,8.8,7.32,13.82l.6,1,1.6,20.92.19,11.33-6.51,11.3-11.55,14.53-3.19,2.55a241.79,241.79,0,1,1-180.65-.39l-3.6-2.54L220.28,144l-6.62-11.21L212.94,114l1.56-20.58,1.86-6.49A316,316,0,0,0,7.78,384.52c0,102.59,49.06,193.94,124.95,251.82C193.88,655.65,253.6,669,325.55,669s115.78-8.11,190.08-32.38C591.7,578.7,640.88,487.25,640.88,384.52,640.88,248.08,555.14,128.65,426.71,84.89Z" style="fill:#ffdf1b"/><path d="M88.24,509.56c.92,1.59,2,3.81,3.6,6.51,2.09,3.62,3.4,5.62,4.16,6.93a1.85,1.85,0,0,1-1.35.78,22.12,22.12,0,0,0-1.87-2.32c-.84-.9-1.46-1-3.28-.07-4.11,2.16-11.41,6.43-17.62,10-.08,0-.27.26-.2.38a35.4,35.4,0,0,0,2.21,3.82,2.45,2.45,0,0,0,2.56,1.12,27.07,27.07,0,0,0,4.21-.52c.21.09.68,1.46.47,1.74-1.81.62-5.39,2.15-7.25,3.07-.08,0-.42-.08-.45-.22a13.51,13.51,0,0,0-1.6-4l-8.13-14.08a17.65,17.65,0,0,0-3.07-4.22c-.07-.12.1-.38.18-.42a57.84,57.84,0,0,0,7.47-3,3.08,3.08,0,0,1,.93,1.43,20,20,0,0,0-3.08,2.84,1.86,1.86,0,0,0-.34,2.26,43.42,43.42,0,0,0,2.37,4.2.41.41,0,0,0,.41,0c5.65-3.26,15.62-9,18.06-10.53.73-.48,1.42-1,1.26-2.05a16.44,16.44,0,0,0-1.06-2.94A2.28,2.28,0,0,1,88.24,509.56Z" style="fill:#00529c"/><path d="M59.12,514.91c-.42-1-1.06-2.79-2.56-6.25-1.42-3.29-2.34-5-2.81-6.14.14-.26,1.23-.73,1.45-.58a10.79,10.79,0,0,0,1.22,1.78c.64.67,1.28.65,2.55.1,2.06-.79,4.61-1.95,6.93-3,.11-.1.22-.19.2-.34-.08-.42-.3-.92-2.27-5.47-1.11-2.57-1.73-4-2-4.53-.08-.07-.28-.18-.41-.12-2.11.91-5.24,2.22-7.51,3.35-.53.28-1.17.76-1.11,1.48a12.59,12.59,0,0,0,.58,2.5c-.08.28-1.17.76-1.45.58-.75-1.73-1.22-3.17-2.65-6.46-1.5-3.46-2.19-4.71-2.72-5.93a2.05,2.05,0,0,1,1.45-.58,10.23,10.23,0,0,0,1.28,1.8c.58.65,1.11.72,2.44.2,2.88-1.1,4.63-1.91,9.81-4.15,2.82-1.22,6.11-2.65,7.93-3.54,1.12-.54,1.72-1,1.72-1.8a20.59,20.59,0,0,0-.62-2.94c.13-.16,1.31-.57,1.52-.41.46,1.05,1.28,3.3,2.58,6.29,1.22,2.82,2.5,5.42,2.9,6.35a1.85,1.85,0,0,1-1.43.62c-.49-.79-.87-1.32-1.26-1.86s-1.21-.72-2.58-.18c-2,.77-4.95,2.09-7.69,3.28-.13.05-.26.21-.2.34.32.86,1.22,2.93,2,4.78,2.14,4.83,2.31,5.21,2.46,5.34a.65.65,0,0,0,.29,0c2.65-1.15,5.48-2.37,7.36-3.24,1.22-.53,1.88-1,1.74-2.11-.07-.62-.3-1.62-.5-2.54a2.28,2.28,0,0,1,1.51-.45c.33.76,1.08,2.84,2.76,6.71,1.41,3.25,2.43,5.26,2.79,6.1a2.27,2.27,0,0,1-1.42.66l-1.22-1.77c-.75-1-1.49-1-3.35-.35-.65.23-4.53,1.91-8.24,3.52-4.13,1.79-7.8,3.38-9,4S59.89,511,60,512c.14.79.31,1.42.57,2.36A2.29,2.29,0,0,1,59.12,514.91Z" style="fill:#00529c"/><path d="M44.26,478.92c-.51-1.72-1.19-4.53-1.83-6.69l-2.61-8.86a50.13,50.13,0,0,0-2-5.65.21.21,0,0,1,.14-.18,55.21,55.21,0,0,0,6.83-1.34,3.28,3.28,0,0,1,.63,1.64,12.1,12.1,0,0,0-3,1.8,2.12,2.12,0,0,0-.61,2.14,59.79,59.79,0,0,0,1.76,6.14c.11.21.7.27.92.21,2.83-.79,5.55-1.64,8.55-2.52a.39.39,0,0,0,.26-.41C53,464,52.15,461,51.64,459.6c-.32-.91-.83-1.19-2-1.13-.48,0-1.08.08-1.69.12a3.57,3.57,0,0,1-.43-1.79c1.07-.27,2.93-.62,4.34-1,1.19-.35,3.2-1,4.42-1.4a3.92,3.92,0,0,1,.55,1.71l-1.68,1a1.83,1.83,0,0,0-.84,1.87c.15.82,1.15,4.21,1.54,5.53,0,.13.4.22.49.19l7.75-2.29A1.51,1.51,0,0,0,65.27,461a37.11,37.11,0,0,0-1.3-5.55c-.58-2-.94-2.55-2.37-3.18a17.4,17.4,0,0,0-4.74-1.14,3.59,3.59,0,0,1,.09-1.8,39.73,39.73,0,0,1,7.07.12c.45.06.82.19,1.38,2.08,1.09,3.7,2.16,8,3.54,12.65.69,2.33,1.77,5.51,2.47,7.89a4.46,4.46,0,0,1-1.5.44,31.06,31.06,0,0,0-1.53-3.09c-.45-.73-1.07-1-2.48-.61-2.55.61-5.59,1.5-10.66,3-3.26,1-6.7,2-8.24,2.57-1.21.45-1.47.86-1.49,1.78a11.68,11.68,0,0,0,.28,2.41A2.25,2.25,0,0,1,44.26,478.92Z" style="fill:#00529c"/><path d="M34.3,442.6c-.24-1.68-.48-4.25-.88-7-.43-3-.91-5.3-1.18-7.16a2.28,2.28,0,0,1,1.55-.22c.21.81.5,1.51.67,2,.44,1.1,1.31,1.34,2.72,1.18,3.25-.33,7.33-1,9.74-1.36a40.6,40.6,0,0,0,5.72-1.2c3.06-1,4.83-3.49,4.19-7.94-.44-3-2-6.26-8.18-5.83a127.4,127.4,0,0,0-13.06,1.8c-1.71.34-2.53.83-2.63,2.38A17.33,17.33,0,0,0,32.9,422a2.59,2.59,0,0,1-1.55.18c-.24-1.68-.38-3.57-.68-5.66-.5-3.46-.78-4.44-.93-5.48a1.86,1.86,0,0,1,1.55-.22c.23.66.42,1.29.69,1.85.44,1.1,1.17,1.36,3.42,1.18,1.51-.12,7.91-.87,10.92-1.21,9.37-1,13.09,3.21,14.11,10.26,1.18,8.18-2.42,11.49-6.76,12.63-3.26.89-10.23,1.8-15.64,2.63-1.18.22-1.9.69-2.06,1.83a13,13,0,0,0-.11,2.43A3.56,3.56,0,0,1,34.3,442.6Z" style="fill:#00529c"/><path d="M29.5,407.55c-.08-1.65.05-3.86,0-6.76,0-1.42-.11-2.8-.17-3.44a12.58,12.58,0,0,0,2.49-1.75c4.47-3.68,12.91-10.53,16.43-13.64,0-.09,0-.09-.05-.18-5.7.13-11.62.21-14.6.55-1.56.17-2.24.65-2.57,2.12a20.26,20.26,0,0,0-.4,2.77,3,3,0,0,1-1.56,0c0-1.2.07-3.27,0-6.21-.06-2.57-.24-4.5-.26-5.37a2.29,2.29,0,0,1,1.56,0,12.42,12.42,0,0,0,.41,1.78c.44,1.32,1,1.82,2.94,1.91,4,.23,11.08.17,17,0,2,0,4.68-.15,6.34-.23a38.33,38.33,0,0,0,.15,4.59c-3.66,2.84-17,13.38-20.87,16.54-.14.14,0,.23.05.23,5,0,14.06-.31,16-.44s2.65-.88,2.89-2.18c.17-.74.24-1.52.45-2.67a2.07,2.07,0,0,1,1.56,0c0,1.65-.06,3.72,0,5.84.05,2.39.24,4.55.27,6a2.58,2.58,0,0,1-1.56,0,17.83,17.83,0,0,0-.66-2.65c-.34-1-1.18-1.4-2.65-1.5-2.39-.22-11.22-.21-17.92-.06a3.1,3.1,0,0,0-2.95,1.76,9.2,9.2,0,0,0-.63,2.86A3.79,3.79,0,0,1,29.5,407.55Z" style="fill:#00529c"/><path d="M29.31,372.07c.11-1.65.39-3.66.61-6.82.31-4.45.28-6,.35-7a2.58,2.58,0,0,1,1.56.11,18.47,18.47,0,0,0,.29,2.42c.3,1,.94,1.12,2.26,1.26s4.67.37,8.61.64c5.55.38,8.89.66,10.68.69.83,0,1.89,0,2.3-1.22.22-.54.44-1.67.69-2.58a2.57,2.57,0,0,1,1.54.34c-.18,1.88-.39,3.61-.61,6.87-.29,4.12-.24,5.51-.36,7.25a1.86,1.86,0,0,1-1.56-.11c-.07-1-.16-1.62-.22-2.13-.19-1.21-.54-1.51-2.36-1.78-1.6-.2-6.87-.57-10.58-.82-4.86-.34-7.06-.49-9-.49a1.82,1.82,0,0,0-2,1,17.72,17.72,0,0,0-.63,2.49A2.58,2.58,0,0,1,29.31,372.07Z" style="fill:#00529c"/><path d="M61.27,337.82c-.28,1.82-.8,4.25-1.27,7.33-.64,4.13-.87,6.51-1.1,8a1.85,1.85,0,0,1-1.54-.24,22.22,22.22,0,0,0,0-3c-.09-1.22-.53-1.66-2.51-2.11-4.56-.89-12.92-2.13-20-3.23-.09,0-.38,0-.4.17a35.15,35.15,0,0,0-.67,4.36,2.44,2.44,0,0,0,1.29,2.48,27,27,0,0,0,3.61,2.23c.11.2-.38,1.57-.72,1.66-1.81-.65-5.55-1.69-7.57-2.14-.09,0-.28-.32-.21-.45a13.56,13.56,0,0,0,1.23-4.09l2.48-16.07a17.65,17.65,0,0,0,.25-5.21c0-.14.31-.23.4-.22a57.84,57.84,0,0,0,7.73,2.31,3.08,3.08,0,0,1-.17,1.69,20.14,20.14,0,0,0-4.18.28,1.86,1.86,0,0,0-1.68,1.55,43.21,43.21,0,0,0-.78,4.76.41.41,0,0,0,.34.24c6.45,1,17.79,2.79,20.67,3.1.87.09,1.75.08,2.26-.81a16.5,16.5,0,0,0,1-3A2.29,2.29,0,0,1,61.27,337.82Z" style="fill:#00529c"/><path d="M35.32,324.11c.45-1.74,1.3-4.5,1.86-6.68l2.3-8.94a50.24,50.24,0,0,0,1.22-5.85.2.2,0,0,1,.21-.09,55.23,55.23,0,0,0,6.56,2.35,3.28,3.28,0,0,1-.3,1.73,12,12,0,0,0-3.51,0A2.12,2.12,0,0,0,42,308.15a60.16,60.16,0,0,0-1.64,6.17c0,.23.46.59.69.65,2.84.78,5.61,1.44,8.63,2.22a.39.39,0,0,0,.44-.22c.3-1.16,1.13-4.21,1.41-5.66.2-.95-.1-1.45-1.14-2-.41-.25-1-.49-1.51-.77a3.58,3.58,0,0,1,.55-1.76c1.06.32,2.84,1,4.26,1.34,1.2.31,3.26.79,4.52,1.07a4,4,0,0,1-.4,1.75l-1.94,0a1.83,1.83,0,0,0-1.68,1.18c-.3.78-1.18,4.2-1.52,5.54,0,.13.23.39.32.41l7.83,2a1.51,1.51,0,0,0,1.71-.56,36.88,36.88,0,0,0,1.73-5.44c.52-2,.5-2.67-.41-3.95a17.38,17.38,0,0,0-3.49-3.41,3.59,3.59,0,0,1,1-1.5,39.71,39.71,0,0,1,6,3.73c.35.28.61.58.12,2.5-1,3.74-2.24,8-3.46,12.68-.61,2.36-1.31,5.64-1.93,8a4.45,4.45,0,0,1-1.51-.39,31.18,31.18,0,0,0,.27-3.44c0-.86-.39-1.43-1.81-1.8-2.5-.79-5.57-1.58-10.69-2.9-3.29-.85-6.76-1.74-8.4-2-1.27-.23-1.71,0-2.19.76a11.74,11.74,0,0,0-1,2.21A2.26,2.26,0,0,1,35.32,324.11Z" style="fill:#00529c"/><path d="M43,295.09c.35-.9,2.12-5.14,2.6-6.38,1.23-3.32,1.62-4.74,2.93-8.13,1.47-3.82,3.39-6.38,6.12-8a13.48,13.48,0,0,1,11.5-.6,13.87,13.87,0,0,1,8.51,8.19c1.59,4.45.85,8.79-.93,13.42-1,2.57-2.55,6.25-4.16,10.31l-.63,1.63c-.32.07-1.48-.37-1.46-.56A23.49,23.49,0,0,0,68,302.3c.13-1-.36-1.62-1.43-2.17s-4.84-2-9.77-3.9c-4.59-1.76-6.69-2.57-8.71-3.2-1.15-.34-1.6-.32-2.3.49a14.2,14.2,0,0,0-1.4,2.22A3,3,0,0,1,43,295.09Zm27.32-1.56a6.42,6.42,0,0,0,2.54-3.16,6.24,6.24,0,0,0-.63-5.66c-1.48-2.29-3.6-4.19-8-5.87-3.94-1.52-8.47-1.53-11.51.5a10,10,0,0,0-3.59,4.87,3.54,3.54,0,0,0-.33,1.5c0,.19.27.45.43.56,1.7.7,6.71,2.63,10.62,4.13,4.12,1.58,7.5,2.88,8.84,3.25A3.05,3.05,0,0,0,70.28,293.53Z" style="fill:#00529c"/><path d="M85.46,260.85a7.4,7.4,0,0,0,3.1-3.07c1-1.89.73-4-1.29-5.11s-3.52-.94-7.87,1.55c-4,2.25-7.46,4.14-11.73,1.8-4.75-2.61-5.12-7.95-2.58-12.58,1.7-3.1,3.13-4.47,4.37-6.35A57.47,57.47,0,0,0,75,241a2.42,2.42,0,0,1-.69,1.45c-2.66-1-4.11-1.1-5.33-.51a5.07,5.07,0,0,0-2.58,2.51,3.74,3.74,0,0,0,1.48,5.32c1.69.93,3.24.68,5.28-.35s3.19-1.81,5.19-3c3.49-2,6-2.32,8.89-.73,4.27,2.34,5.82,7.64,2.39,13.89A17.29,17.29,0,0,1,85,265.19c-.89.09-5.76-1.53-7.19-2.27a2.25,2.25,0,0,1,.33-1.65C81.37,261.91,83.51,261.72,85.46,260.85Z" style="fill:#00529c"/><path d="M106.92,230.71c-1,1.52-2.54,3.5-4.29,6.08-2.35,3.46-3.58,5.51-4.43,6.77-.32.06-1.27-.58-1.29-.88A22.27,22.27,0,0,0,98.17,240c.44-1.14.23-1.73-1.36-3-3.74-2.76-10.75-7.47-16.68-11.49-.08-.05-.36-.13-.43,0a35.19,35.19,0,0,0-2.48,3.65,2.44,2.44,0,0,0,.1,2.79,26.92,26.92,0,0,0,2.3,3.56c0,.23-1,1.25-1.36,1.19-1.35-1.36-4.29-3.91-5.92-5.18a.46.46,0,0,1,0-.5,13.53,13.53,0,0,0,2.87-3.16l9.13-13.45a17.65,17.65,0,0,0,2.46-4.6c.08-.11.38-.07.46,0a57.87,57.87,0,0,0,6,5.4,3.08,3.08,0,0,1-.88,1.46,20.1,20.1,0,0,0-3.9-1.54,1.87,1.87,0,0,0-2.19.68,43.07,43.07,0,0,0-2.75,4,.41.41,0,0,0,.2.36c5.4,3.66,14.87,10.15,17.34,11.66a2,2,0,0,0,2.39.24,16.5,16.5,0,0,0,2.19-2.24C105.93,229.71,106.87,230.45,106.92,230.71Z" style="fill:#00529c"/><path d="M108.84,219.23C105.9,213.45,100.5,204,98.71,201a16.42,16.42,0,0,0-1.87-2.77c.48-.5,1.08-1.14,1.61-1.77s1-1.29,1.41-1.82l2.54,1.12c4.44,1.64,14.76,5.58,18.89,7,3.89,1.3,4.32,1.36,7-.92a3.07,3.07,0,0,1,1.08,1.15c-.74.88-2.15,2.34-4.42,5-2.49,3-3.3,4.13-4.42,5.47a3.57,3.57,0,0,1-1.19-1,7.93,7.93,0,0,0,1-2.14.79.79,0,0,0-.37-.91A63.1,63.1,0,0,0,113.7,207c-.13,0-.42,0-.54.14-.51.53-1.48,1.76-2.25,2.67-1.18,1.41-2,2.32-2.33,2.84a.85.85,0,0,0,0,.65,35.94,35.94,0,0,0,3.23,5,1.38,1.38,0,0,0,2,0c.61-.44,1.16-.88,1.8-1.43A3,3,0,0,1,116.7,218c-.86,1-2.12,2.3-3.83,4.34-1.09,1.3-2.2,2.83-3.24,4.06a2.59,2.59,0,0,1-1.19-1C110.12,222.64,110.21,221.89,108.84,219.23ZM102,202.54c1.38,2.36,3.52,5.73,4.67,7.65.11.15.25.21.31.14.36-.36.92-1,1.72-2,1-1.16,1.69-2,1.95-2.38,0,0,0-.19-.09-.25-1.39-.57-5.91-2.39-8.44-3.32C102.09,202.44,102,202.51,102,202.54Z" style="fill:#00529c"/><path d="M144,189.08c-1.33,1.27-3.21,2.89-5.46,5.06-3,2.9-4.64,4.65-5.74,5.7-.32,0-1.12-.83-1.08-1.13a22.14,22.14,0,0,0,1.8-2.37c.67-1,.59-1.65-.72-3.2-3.08-3.47-9-9.54-13.93-14.71-.06-.07-.32-.2-.42-.11a35.34,35.34,0,0,0-3.18,3.05,2.45,2.45,0,0,0-.48,2.75,27,27,0,0,0,1.51,4c0,.23-1.25,1-1.58.88-1-1.61-3.38-4.72-4.71-6.3-.06-.07,0-.42.11-.48a13.56,13.56,0,0,0,3.46-2.5l11.73-11.26a17.62,17.62,0,0,0,3.36-4c.1-.1.39,0,.45.07a57.86,57.86,0,0,0,4.74,6.53,3.09,3.09,0,0,1-1.16,1.24,20.07,20.07,0,0,0-3.49-2.31,1.86,1.86,0,0,0-2.28.21,43.28,43.28,0,0,0-3.51,3.31.41.41,0,0,0,.12.39c4.52,4.71,12.44,13,14.54,15,.64.6,1.34,1.13,2.29.73a16.47,16.47,0,0,0,2.6-1.73C143.28,187.9,144,188.82,144,189.08Z" style="fill:#00529c"/><path d="M132.43,161.84c1.41-1.1,3.78-2.78,5.55-4.16l7.28-5.69a50.13,50.13,0,0,0,4.54-3.9.21.21,0,0,1,.22.06,55.14,55.14,0,0,0,3.77,5.86,3.28,3.28,0,0,1-1.29,1.18,12,12,0,0,0-2.78-2.14,2.12,2.12,0,0,0-2.22.22,59.81,59.81,0,0,0-5.06,3.9c-.15.18,0,.75.15.93,1.77,2.34,3.56,4.56,5.49,7a.39.39,0,0,0,.48.09c.94-.74,3.47-2.65,4.57-3.63.73-.63.8-1.21.31-2.29-.17-.45-.47-1-.73-1.53a3.57,3.57,0,0,1,1.5-1.06c.64.9,1.66,2.49,2.56,3.65.76,1,2.1,2.61,2.93,3.6a4,4,0,0,1-1.38,1.14l-1.52-1.2a1.83,1.83,0,0,0-2.05-.09c-.71.44-3.5,2.62-4.58,3.46-.11.09-.06.45,0,.52l5,6.37a1.51,1.51,0,0,0,1.69.6,36.91,36.91,0,0,0,4.69-3.26c1.63-1.27,2-1.81,2.08-3.38a17.38,17.38,0,0,0-.68-4.83,3.59,3.59,0,0,1,1.71-.58,39.77,39.77,0,0,1,2.49,6.62c.11.44.13.83-1.43,2-3,2.38-6.63,4.95-10.47,7.95-1.92,1.5-4.48,3.67-6.43,5.2a4.44,4.44,0,0,1-1-1.23,31.14,31.14,0,0,0,2.31-2.56c.51-.69.56-1.37-.34-2.53-1.5-2.15-3.46-4.65-6.71-8.81-2.09-2.68-4.3-5.5-5.43-6.72-.86-1-1.34-1-2.2-.73a11.75,11.75,0,0,0-2.14,1.15A2.26,2.26,0,0,1,132.43,161.84Z" style="fill:#00529c"/><path d="M174.55,162.33a7.4,7.4,0,0,0,4.19-1.21c1.82-1.16,2.56-3.16,1.32-5.1s-2.64-2.51-7.65-2.42c-4.6.05-8.52.05-11.15-4.05-2.92-4.57-.68-9.43,3.77-12.27,3-1.9,4.89-2.42,6.88-3.47a57.34,57.34,0,0,0,3,6.15,2.43,2.43,0,0,1-1.31.94c-1.86-2.14-3.08-2.94-4.43-3a5.07,5.07,0,0,0-3.47,1,3.74,3.74,0,0,0-1.25,5.38c1,1.63,2.52,2.15,4.8,2.22s3.67-.06,6-.11c4,0,6.37.84,8.15,3.62,2.62,4.1,1.43,9.49-4.56,13.33a17.28,17.28,0,0,1-6.79,2.6c-.82-.35-4.32-4.11-5.22-5.44a2.25,2.25,0,0,1,1.08-1.29C170.46,161.29,172.43,162.16,174.55,162.33Z" style="fill:#00529c"/><path d="M471.74,133.12c1.41.87,3.15,2.23,5.57,3.81,1.19.78,2.37,1.5,2.93,1.81a12.6,12.6,0,0,0,0,3c.51,5.77,1.38,16.6,2,21.26.08.05.1,0,.18.06,3.12-4.77,6.4-9.7,7.8-12.35.74-1.38.73-2.21-.29-3.32a20.36,20.36,0,0,0-2.05-1.89c-.05-.25.73-1.28.86-1.31,1,.65,2.65,1.9,5.11,3.51,2.15,1.41,3.84,2.35,4.57,2.83a2.27,2.27,0,0,1-.86,1.31,12.37,12.37,0,0,0-1.7-.67c-1.34-.38-2-.24-3.24,1.34-2.46,3.17-6.41,9-9.63,14-1.11,1.69-2.53,3.95-3.39,5.35a38.48,38.48,0,0,0-3.87-2.48c-.27-4.62-1.42-21.57-1.83-26.56,0-.19-.19-.13-.22-.09-2.82,4.14-7.7,11.76-8.67,13.43s-.77,2.68.16,3.62c.51.56,1.12,1.06,2,1.88.08.22-.55,1.18-.89,1.28-1.38-.91-3-2.15-4.81-3.31-2-1.31-3.88-2.37-5.11-3.18a2.57,2.57,0,0,1,.86-1.31,17.66,17.66,0,0,0,2.55,1c1,.28,1.82-.18,2.74-1.34,1.54-1.85,6.52-9.13,10.19-14.74a3.1,3.1,0,0,0,.21-3.43,9.23,9.23,0,0,0-2-2.14A3.78,3.78,0,0,1,471.74,133.12Z" style="fill:#00529c"/><path d="M487.87,171.39c5.74-3,15.08-8.56,18.06-10.39a16.38,16.38,0,0,0,2.75-1.91c.5.47,1.15,1.06,1.79,1.58s1.31,1,1.84,1.38l-1.08,2.56c-1.58,4.47-5.37,14.84-6.76,19-1.24,3.91-1.3,4.34,1,7a3.06,3.06,0,0,1-1.13,1.09c-.89-.73-2.37-2.11-5.1-4.35-3-2.44-4.18-3.24-5.53-4.35a3.57,3.57,0,0,1,1-1.21,7.94,7.94,0,0,0,2.15.93.79.79,0,0,0,.91-.38,62.81,62.81,0,0,0,2.35-6.21c0-.13,0-.42-.15-.54-.54-.5-1.78-1.45-2.7-2.21-1.42-1.16-2.35-1.92-2.87-2.29a.85.85,0,0,0-.65,0,35.81,35.81,0,0,0-5,3.3,1.38,1.38,0,0,0,0,2c.45.61.9,1.15,1.45,1.78a3,3,0,0,1-1.1,1.12c-1-.84-2.33-2.09-4.39-3.77-1.31-1.08-2.86-2.16-4.1-3.18a2.6,2.6,0,0,1,1-1.21C484.47,172.71,485.23,172.79,487.87,171.39Zm16.6-7.08c-2.34,1.41-5.68,3.6-7.59,4.77-.15.11-.2.25-.13.31.36.36,1,.91,2,1.69,1.17,1,2,1.66,2.41,1.91,0,0,.19,0,.25-.09.55-1.39,2.31-5.94,3.2-8.48C504.57,164.4,504.49,164.28,504.46,164.31Z" style="fill:#00529c"/><path d="M517.42,165.84c1.09,1.05,3.17,3.26,4.92,5,2.15,2.08,4.46,4.12,5.15,4.79.07.26-.79,1.15-1,1.19a7.67,7.67,0,0,0-2.26-1.16c-.36,0-.71.21-1,.76-1.19,2.55-5.81,13.87-6.74,16.36a.21.21,0,0,0,.2.19c2.71-1,12-5.3,14.6-6.84,1.42-.74,2-1.5,1.32-2.62a20.37,20.37,0,0,0-1.7-2.41,2.67,2.67,0,0,1,1.25-1c.56.54,1.59,1.79,4,4.09,2.15,2.08,3.27,3,4,3.7a2.53,2.53,0,0,1-1.05,1.16,8.19,8.19,0,0,0-2.16-1.2c-1.31-.37-2.41,0-4.5.82-3.42,1.42-9.9,4.23-15.58,6.73a69.21,69.21,0,0,0-6.32,3.1,29.06,29.06,0,0,0-2.87-2.78c.91-1.87,1.82-3.86,2.79-6.25,2.62-6.28,4.84-11.55,6.12-14.85,1.34-3.5,1.55-4.64.74-6a12.14,12.14,0,0,0-1.13-1.67C516.3,166.54,517.23,165.78,517.42,165.84Z" style="fill:#00529c"/><path d="M521.76,201.8c6.16-2,16.28-5.94,19.53-7.26a16.36,16.36,0,0,0,3-1.43c.42.55,1,1.24,1.5,1.86s1.12,1.21,1.58,1.67L545.91,199c-2.3,4.14-7.75,13.74-9.8,17.61-1.87,3.65-2,4.07-.14,7a3,3,0,0,1-1.3.89c-.76-.86-2-2.48-4.31-5.14-2.54-2.9-3.58-3.88-4.73-5.2a3.57,3.57,0,0,1,1.17-1,7.93,7.93,0,0,0,2,1.27.79.79,0,0,0,1-.23,63.51,63.51,0,0,0,3.35-5.73c0-.13.06-.42-.06-.56-.45-.58-1.51-1.73-2.3-2.63-1.21-1.38-2-2.28-2.45-2.74a.86.86,0,0,0-.64-.11,35.94,35.94,0,0,0-5.44,2.44,1.38,1.38,0,0,0-.29,2c.35.67.7,1.28,1.14,2a3,3,0,0,1-1.27.92c-.88-1-2-2.44-3.71-4.45-1.12-1.28-2.46-2.61-3.52-3.82a2.58,2.58,0,0,1,1.18-1C518.2,202.54,518.93,202.75,521.76,201.8Zm17.54-4.23c-2.54,1-6.2,2.61-8.27,3.45-.17.09-.24.21-.18.28.3.41.87,1.07,1.69,2,1,1.14,1.72,2,2.06,2.29,0,0,.19,0,.26,0,.77-1.28,3.26-5.48,4.56-7.83C539.39,197.68,539.33,197.54,539.3,197.57Z" style="fill:#00529c"/><path d="M558.35,209.75c1.08,1.54,1.68,2.64,3.85,5.72,1.9,2.71,3,4.12,4,5.49,0,.26-1,.88-1.28.9a17.65,17.65,0,0,0-1.61-1.57c-.84-.64-1.3-.49-2.3.16-.63.39-3.14,2.09-6.9,4.73s-8.43,6-9.36,6.74a1.54,1.54,0,0,0-.67,1.53,35.27,35.27,0,0,0,3.16,4.91,3,3,0,0,0,2.72,1.23,31,31,0,0,0,6.31-.61c.25.11.67,1.44.46,1.7a35.7,35.7,0,0,1-8.45,2.51c-.38.1-.92-.19-2.08-1.85-2.16-3.08-4.8-7.24-6.86-10.17s-3.17-4.28-4.15-5.67a2.28,2.28,0,0,1,1.28-.9,16.18,16.18,0,0,0,1.91,1.92c.73.56,1.3.49,2.28,0s5-3.31,8.83-6c4.36-3.06,6.36-4.46,7.77-5.57a1.71,1.71,0,0,0,.78-2.17,18.77,18.77,0,0,0-1.06-2.23A2.2,2.2,0,0,1,558.35,209.75Z" style="fill:#00529c"/><path d="M577.7,237.36c.9,1.81,1.33,3,3,6.39s2.36,4.42,3.2,6.11a2.28,2.28,0,0,1-1.4.7,12.44,12.44,0,0,0-1.54-1.75,1,1,0,0,0-1.27.12c-3.83,3.45-8.92,8.46-11.31,10.88-.08.14.06.23.17.23,4.54-.37,13.38-1.59,17.47-2.45a15.51,15.51,0,0,0,1.46,2.92c-2.74,2.65-11,11.79-12.79,14,0,.1.06.23.16.23,4.56-.63,12.21-2,14.69-2.66,1.29-.39,2.08-.88,1.87-2.22a14.87,14.87,0,0,0-.76-3c.06-.29,1.27-.74,1.42-.66.47.95,1.25,2.82,2.46,5.24,1.38,2.75,2.11,3.93,2.56,4.83a3.56,3.56,0,0,1-1.4.7,15.86,15.86,0,0,0-1.31-1.5c-.84-.76-1.72-1-3.53-.8-6.29.67-18.33,2.47-24.49,3.39a16.4,16.4,0,0,0-1.58-3c2.67-2.67,10.63-11.21,12.6-13.63.06-.08,0-.19-.14-.19-5,.49-13.77,1.43-18.19,2.14a16.31,16.31,0,0,0-1.5-3c4.79-4,14.33-13.37,17.64-16.92.82-.92,1.67-2,1.59-3.1a9.31,9.31,0,0,0-.57-2.49C576.36,237.77,577.51,237.2,577.7,237.36Z" style="fill:#00529c"/><path d="M575,284.06c6.48.31,17.33.28,20.83.22a16.41,16.41,0,0,0,3.34-.25c.19.66.45,1.5.74,2.27s.61,1.54.88,2.13l-2.23,1.65c-3.63,3-12.16,10.05-15.46,12.93-3.05,2.74-3.32,3.08-2.65,6.5a3,3,0,0,1-1.53.37c-.4-1.08-1-3-2.18-6.34-1.33-3.62-2-4.91-2.56-6.55a3.57,3.57,0,0,1,1.47-.54,8,8,0,0,0,1.38,1.89.79.79,0,0,0,1,.13,63.45,63.45,0,0,0,5.18-4.16c.05-.12.21-.37.14-.54-.21-.71-.79-2.16-1.21-3.28-.63-1.72-1-2.85-1.31-3.43a.86.86,0,0,0-.56-.33,36,36,0,0,0-5.95.33,1.38,1.38,0,0,0-1,1.73c.08.75.19,1.45.35,2.27a3,3,0,0,1-1.51.41c-.46-1.25-.95-3-1.87-5.48-.59-1.6-1.37-3.31-1.92-4.82a2.59,2.59,0,0,1,1.47-.54C571.45,283.47,572.06,283.94,575,284.06Zm17.89,2.33c-2.73,0-6.72.22-9,.26-.19,0-.3.11-.27.2.13.49.43,1.31.86,2.47.52,1.42.9,2.46,1.11,2.87,0,0,.18.08.26.05,1.18-.92,5-3.95,7.06-5.68C593,286.52,593,286.37,592.94,286.39Z" style="fill:#00529c"/><path d="M606.68,305.49c.26,1.07,1,4.59,1.35,6.29.81,3.4,1.53,5.82,2.15,8.46,1.31,5.5-.8,9.16-4.82,10.12-3.49.83-6.13-1-8-3.62a.49.49,0,0,0-.37,0,60.76,60.76,0,0,0-8.1,9.43c-1.15,1.93-1.22,2.23-.94,4.57a3.54,3.54,0,0,1-1.68.07c-.85-2.58-1.71-7.19-1.34-9.22a6.87,6.87,0,0,1,1.35-2.68,84.57,84.57,0,0,1,7.09-7.31,1.56,1.56,0,0,0,.5-1.49l-.25-1.07c0-.09-.22-.14-.31-.11-2.77.66-5.53,1.36-7.44,1.86-1.29.35-1.76.75-1.8,1.75a17.69,17.69,0,0,0,.12,2.48c0,.23-1.39.52-1.54.27-.23-1-.61-3.16-1.45-6.69-.88-3.71-1.49-5.69-1.72-6.63.14-.22,1.28-.59,1.51-.41a18.1,18.1,0,0,0,.85,2c.45.89,1.1,1.06,2.5.78s7.45-1.63,10.22-2.29c4.34-1,7.06-1.68,9-2.24,1.2-.33,1.73-.88,1.71-1.73a18.48,18.48,0,0,0-.14-2.37C605.35,305.48,606.54,305.29,606.68,305.49Zm.31,10.64a1.07,1.07,0,0,0-.74-.15c-1,.14-4.31.93-10.21,2.33-.18,0-.33.22-.29.35a12.11,12.11,0,0,0,1.68,4.7c.86,1,2.22,1.6,5,.93,3.71-.88,5.81-3.55,5-7A3.88,3.88,0,0,0,607,316.13Z" style="fill:#00529c"/><path d="M614.8,368.32a10.59,10.59,0,0,0,.73-5.46c-.41-4.85-4.45-7.87-12.74-7.17-6.22.53-12.67,3.85-12,11.22a6.44,6.44,0,0,0,1.8,4.32,20,20,0,0,0,4.87,3.09,2.82,2.82,0,0,1-.84,1.45c-1.88-.39-5.75-2-6.72-3.16a21.19,21.19,0,0,1-1.68-6.77c-.87-10.25,3.6-16.76,13.53-17.61a13.44,13.44,0,0,1,13,6.45,20.52,20.52,0,0,1,2.71,9.13c.3,3.57,0,7.29.06,9.35a53,53,0,0,0-7.71-.08c-.29-.16-.5-1.57-.28-1.68C612.14,370.72,613.85,370.25,614.8,368.32Z" style="fill:#00529c"/><path d="M593.21,381a15.44,15.44,0,0,1,10.63-3.55A13.44,13.44,0,0,1,614,382a15.62,15.62,0,0,1,4,11.42c-.27,9.55-6.94,14.42-14.65,14.19a15.49,15.49,0,0,1-9.2-3,15,15,0,0,1-5.48-12.47C588.86,387,590.57,383.46,593.21,381Zm-1.11,16.05c2,2.17,6,3,9.93,3.09,4.64.13,9.68-.92,12.28-3.69a6.31,6.31,0,0,0,1.78-4.31,5.83,5.83,0,0,0-1-3.52c-1.81-2.63-5.69-3.61-10-3.74-4.18-.12-9.58.87-12.48,4a7.17,7.17,0,0,0-1.88,4.63A5.12,5.12,0,0,0,592.1,397.06Z" style="fill:#00529c"/><path d="M616.58,410.35c-.24,1.87-.54,3.08-1,6.82-.42,3.28-.56,5.07-.74,6.76a2.59,2.59,0,0,1-1.55-.2,17.57,17.57,0,0,0-.13-2.24c-.19-1-.63-1.24-1.81-1.44-.72-.14-3.72-.58-8.28-1.16s-10.26-1.28-11.45-1.34a1.54,1.54,0,0,0-1.52.68,35.24,35.24,0,0,0-1,5.76,3,3,0,0,0,1.17,2.75,31.09,31.09,0,0,0,5.07,3.81c.11.24-.47,1.51-.8,1.56a35.62,35.62,0,0,1-7.93-3.85c-.35-.18-.55-.77-.29-2.77.48-3.74,1.34-8.58,1.8-12.13s.55-5.3.76-7a2.28,2.28,0,0,1,1.55.2,16.23,16.23,0,0,0,.11,2.7c.16.9.63,1.24,1.7,1.52s5.94,1,10.55,1.55c5.29.68,7.7,1,9.49,1.13a1.71,1.71,0,0,0,2-1.08A18.72,18.72,0,0,0,615,410,2.2,2.2,0,0,1,616.58,410.35Z" style="fill:#00529c"/><path d="M612.87,437.51c-.42,1.84-.83,3-1.66,6.69-.73,3.23-1,5-1.37,6.66a2.6,2.6,0,0,1-1.52-.35,17.49,17.49,0,0,0,.09-2.24c-.09-1.06-.51-1.29-1.66-1.6-.71-.21-3.65-.92-8.13-1.94s-10.09-2.25-11.27-2.42a1.54,1.54,0,0,0-1.58.54,35.26,35.26,0,0,0-1.52,5.64,3,3,0,0,0,.91,2.84,31,31,0,0,0,4.68,4.27c.08.25-.62,1.46-.95,1.48a35.68,35.68,0,0,1-7.53-4.59c-.33-.22-.47-.81,0-2.79.83-3.67,2.15-8.41,2.94-11.91s1-5.23,1.42-6.88a2.28,2.28,0,0,1,1.52.35,16.33,16.33,0,0,0-.14,2.7c.08.91.51,1.29,1.55,1.67s5.83,1.51,10.35,2.54c5.2,1.18,7.57,1.72,9.34,2a1.71,1.71,0,0,0,2.13-.88,18.72,18.72,0,0,0,.94-2.28A2.21,2.21,0,0,1,612.87,437.51Z" style="fill:#00529c"/><path d="M606.44,464.84c-.57,1.7-1.62,4.4-2.33,6.54l-2.93,8.76a49.8,49.8,0,0,0-1.63,5.75.21.21,0,0,1-.22.07,55.25,55.25,0,0,0-6.38-2.81,3.29,3.29,0,0,1,.42-1.7,12.15,12.15,0,0,0,3.5.25,2.12,2.12,0,0,0,1.73-1.41,59.83,59.83,0,0,0,2.07-6c0-.23-.42-.62-.64-.7-2.77-1-5.49-1.83-8.45-2.82a.39.39,0,0,0-.45.19c-.38,1.13-1.43,4.13-1.81,5.55-.26.93,0,1.45,1,2.08.39.28.93.55,1.45.87a3.56,3.56,0,0,1-.67,1.71c-1-.39-2.76-1.16-4.15-1.63-1.18-.39-3.2-1-4.43-1.38a3.92,3.92,0,0,1,.52-1.71l1.93.16a1.84,1.84,0,0,0,1.76-1.06c.35-.76,1.47-4.11,1.91-5.42,0-.13-.2-.41-.29-.44l-7.67-2.56a1.5,1.5,0,0,0-1.74.43,36.91,36.91,0,0,0-2.11,5.3c-.66,2-.68,2.63.13,4a17.31,17.31,0,0,0,3.24,3.65,3.58,3.58,0,0,1-1.11,1.42,39.75,39.75,0,0,1-5.73-4.15c-.33-.3-.57-.62.06-2.5,1.22-3.66,2.8-7.78,4.34-12.4.77-2.31,1.71-5.53,2.49-7.89a4.45,4.45,0,0,1,1.48.5,31.32,31.32,0,0,0-.51,3.41c0,.86.29,1.45,1.68,1.92,2.44,1,5.45,2,10.46,3.64,3.23,1.08,6.62,2.21,8.24,2.61,1.25.32,1.7.13,2.24-.61a11.81,11.81,0,0,0,1.15-2.14A2.27,2.27,0,0,1,606.44,464.84Z" style="fill:#00529c"/><path d="M561.24,505.87a41.38,41.38,0,0,1,2.88-10.46c4.32-9.39,11.19-13,20.37-8.79,5.47,2.51,8.44,7.26,8.24,12.88a21.93,21.93,0,0,1-2.37,9.12c-1.75,3.8-3.88,6.36-4.89,8.22a42.8,42.8,0,0,0-7-4.09A2.58,2.58,0,0,1,579,511c2.91.93,4.6,1.1,5.91.44a9.58,9.58,0,0,0,4.26-4.87c1.84-4,1.19-9-7.21-12.82-7.27-3.34-14-2.19-16.49,3.2a3.26,3.26,0,0,0-.31,1.88,2.05,2.05,0,0,0,1,1.16,31.31,31.31,0,0,0,4.22,2c1.42.55,2.2.71,3.09-.35a27,27,0,0,0,1.64-2.48,2.91,2.91,0,0,1,1.5.69c-.56,1.21-2,4.08-3.39,7s-1.93,4.42-2.29,5.32a3.35,3.35,0,0,1-1.5-.69,12.21,12.21,0,0,0,.28-1.39c.11-.91,0-1.27-1.9-2.14-1.15-.58-3.74-1.77-4.32-1.93-.41-.09-.7,0-1.42.46A3,3,0,0,1,561.24,505.87Z" style="fill:#00529c"/><path d="M582.73,522.61c-.92,1.54-2.53,4-3.68,5.88l-4.75,7.92a50.23,50.23,0,0,0-2.83,5.27.2.2,0,0,1-.23,0,55.08,55.08,0,0,0-5.62-4.12,3.28,3.28,0,0,1,.78-1.57,12.08,12.08,0,0,0,3.37,1,2.13,2.13,0,0,0,2-1,59.84,59.84,0,0,0,3.32-5.46c.08-.22-.28-.7-.47-.82-2.5-1.55-5-3-7.65-4.58a.39.39,0,0,0-.48.09c-.61,1-2.28,3.72-3,5-.46.85-.31,1.42.53,2.25.32.35.79.74,1.23,1.17a3.58,3.58,0,0,1-1,1.53c-.92-.61-2.44-1.73-3.71-2.49-1.06-.64-2.9-1.68-4-2.31a3.93,3.93,0,0,1,.88-1.56l1.85.57a1.83,1.83,0,0,0,1.95-.66c.5-.66,2.32-3.7,3-4.88.07-.12-.11-.44-.19-.49l-6.94-4.16a1.51,1.51,0,0,0-1.8,0,37,37,0,0,0-3.2,4.72c-1.06,1.77-1.23,2.42-.73,3.9a17.38,17.38,0,0,0,2.37,4.26,3.58,3.58,0,0,1-1.39,1.15,39.68,39.68,0,0,1-4.71-5.28c-.26-.37-.42-.73.6-2.43,2-3.31,4.41-7,6.91-11.18,1.25-2.09,2.86-5,4.13-7.17a4.46,4.46,0,0,1,1.34.8,31.54,31.54,0,0,0-1.24,3.22c-.23.83,0,1.48,1.23,2.24,2.18,1.46,4.89,3.09,9.43,5.81,2.92,1.75,6,3.59,7.48,4.32,1.15.58,1.63.49,2.32-.11a11.74,11.74,0,0,0,1.58-1.84A2.26,2.26,0,0,1,582.73,522.61Z" style="fill:#00529c"/><path d="M116.17,617.68c61.67,8.36,85,39.81,85,39.81l-8,11.17-1.71,2.4c-13.23,9.49-43.69,35.77-96.55,31.82-18.75-1.4-32.59-7.92-42.87-16,0,0-.14-.18-.19-.22-9-7.52-14.39-15.93-17.72-21.09-.5-.77-.93-1.44-1.32-2a68.67,68.67,0,0,1-6.1-12.87C32.66,643,61.56,610.28,116.17,617.68Z" style="fill:#ffdf1b"/><path d="M116.1,617.71c61.67,8.36,85,39.81,85,39.81l-.67,5.83c-1.47,1.16-3.68,3.18-6.58,5.68-7.3,6.3-18.92,15.66-33.8,22,0,0-37.87-30-95-23.19a151.12,151.12,0,0,0-25.57,5.38c-2.17-2.93-3.9-5.6-5.27-7.72-.5-.77-.93-1.44-1.32-2a68.7,68.7,0,0,1-6.12-12.91C32.78,642.86,61.67,610.33,116.1,617.71Z" style="fill:#efb310"/><path d="M532.3,617.68c-61.67,8.36-85,39.81-85,39.81l8,11.17,1.71,2.4c13.23,9.49,43.69,35.77,96.55,31.82,18.75-1.4,32.59-7.92,42.87-16,0,0,.14-.18.19-.22,9-7.52,14.39-15.93,17.72-21.09q.74-1.15,1.32-2a68.56,68.56,0,0,0,6.1-12.87C615.81,643,586.91,610.28,532.3,617.68Z" style="fill:#ffdf1b"/><path d="M532.37,617.71c-61.67,8.36-85,39.81-85,39.81l.67,5.83c1.47,1.16,3.68,3.18,6.58,5.68,7.3,6.3,18.92,15.66,33.8,22,0,0,37.87-30,95-23.19A151.1,151.1,0,0,1,609,673.26c2.17-2.93,3.91-5.6,5.27-7.72q.74-1.15,1.32-2a68.65,68.65,0,0,0,6.12-12.91C615.69,642.86,586.8,610.33,532.37,617.71Z" style="fill:#efb310"/><path d="M227.91,28a75,75,0,0,0-15,12.26c-4.35,4.85-7.89,10.45-9,16.87a21.84,21.84,0,0,0,.86,10,16,16,0,0,0,5.55,7.71h0a14.37,14.37,0,0,0,9.21,2.77A21.08,21.08,0,0,0,229.21,75a22.43,22.43,0,0,0,7.25-6.8,25.94,25.94,0,0,0,4.25-9.08,97.26,97.26,0,0,0,2.2-9.79c.48-3.21,1.24-6.53,1.51-9.64s.79-5.89,1.36-8.81a67.31,67.31,0,0,1,2.27-8.7h0l2.11-5.38L245,18.95A115.79,115.79,0,0,0,227.91,28Z" style="fill:#ffdf1b"/><path d="M227.91,28a75,75,0,0,0-15,12.26c-4.35,4.85-7.89,10.45-9,16.87a21.84,21.84,0,0,0,.86,10,16,16,0,0,0,5.55,7.71h0a14.37,14.37,0,0,0,9.21,2.77A21.08,21.08,0,0,0,229.21,75a22,22,0,0,0,7.31-6.62,30.18,30.18,0,0,0,4.67-9.67,89.11,89.11,0,0,0,2-9.32c.48-3.21,1.17-6.39,1.43-9.49s.61-6.11,1.18-9a67.31,67.31,0,0,1,2.27-8.7h0l2.11-5.38L245,18.95A115.79,115.79,0,0,0,227.91,28Zm2,3.36c2.69-1.54,5.45-3,8.25-4.3,1-.49,3.12-1.67,4.15-2.13-.46,1.27-.86,3.44-1.22,4.74-.84,3.23-1.34,6.61-2,10.19-1.14,6.26-2,11.44-3.59,17.42a40.5,40.5,0,0,1-3.09,8.2,18.61,18.61,0,0,1-4.73,6.28,12,12,0,0,1-7.11,3.15,6.85,6.85,0,0,1-4.3-.58s.39-.73,1.07-2.18c.89-1.88,1.67-3.55,2.28-5.14.76-2,1.44-3.7,1.94-5.26s.83-2.77,1.3-4.28c.88-3,1.79-5.92,2.81-8.84.5-1.46,1-2.91,1.62-4.33.34-.8.69-1.61,1.08-2.38l1-1.74a23.59,23.59,0,0,0-3.11,3.53c-1,1.26-1.85,2.55-2.73,3.86-1.75,2.61-3.42,5.28-5,8-.81,1.32-1.63,2.76-2.4,4a43,43,0,0,1-2.52,3.56,32.82,32.82,0,0,1-2.8,3.14c-.49.49-1,.94-1.48,1.35l-.74.57-.31.21A13.64,13.64,0,0,1,207,65.46a23,23,0,0,1-.33-8.38,19.7,19.7,0,0,1,3.06-7.83,39,39,0,0,1,5.4-6.92A71.81,71.81,0,0,1,230,31.37Z" style="fill:#efb310"/><path d="M197.52,58.54A84.86,84.86,0,0,0,194,80.13c-.06,7.36,1.12,14.76,5,21a24.71,24.71,0,0,0,8.17,7.79,18.05,18.05,0,0,0,10.47,2.38h0a16.24,16.24,0,0,0,9.88-4.53,23.81,23.81,0,0,0,6.19-9.41c1.35-3.61,1.37-7.27,1.06-11.19a29.42,29.42,0,0,0-3.19-10.87,111.68,111.68,0,0,0-5.45-9.94c-2-3.08-3.84-6.46-5.94-9.3s-3.73-5.58-5.44-8.49a76,76,0,0,1-4.58-9.07v0L208,32.35l-2.74,5.75A130.93,130.93,0,0,0,197.52,58.54Z" style="fill:#ffdf1b"/><path d="M197.52,58.54A84.86,84.86,0,0,0,194,80.13c-.06,7.36,1.12,14.76,5,21a24.71,24.71,0,0,0,8.17,7.79,18.05,18.05,0,0,0,10.47,2.38h0a16.24,16.24,0,0,0,9.88-4.53,23.81,23.81,0,0,0,6.19-9.41A24.91,24.91,0,0,0,235,86.29a34.2,34.2,0,0,0-3.27-11.69,101.82,101.82,0,0,0-5.29-9.37c-2-3.09-3.79-6.28-5.88-9.12s-4-5.63-5.76-8.54a76,76,0,0,1-4.58-9.07v0L208,32.35l-2.74,5.75A130.93,130.93,0,0,0,197.52,58.54Zm4.25,1.31c1.13-3.32,2.39-6.6,3.78-9.81.49-1.17,1.4-3.75,1.93-4.91.56,1.41,1.84,3.56,2.51,4.92,1.7,3.36,3.8,6.6,5.93,10.12,3.72,6.15,6.87,11.18,10,17.45a45.78,45.78,0,0,1,3.52,9.26,21.12,21.12,0,0,1,.69,8.86,13.54,13.54,0,0,1-3.67,8,7.75,7.75,0,0,1-4.07,2.73s-.22-.91-.72-2.64c-.65-2.26-1.24-4.25-1.91-6.06-.82-2.23-1.55-4.21-2.29-5.91s-1.37-3-2.1-4.6c-1.48-3.17-2.91-6.36-4.23-9.59-.66-1.61-1.3-3.24-1.87-4.88-.31-.93-.62-1.88-.86-2.83l-.46-2.22a26.63,26.63,0,0,0,0,5.33c.13,1.78.34,3.54.58,5.31.47,3.52,1.06,7,1.68,10.52.3,1.72.68,3.56.93,5.15a49,49,0,0,1,.53,4.9,37,37,0,0,1,0,4.75q-.08,1.17-.25,2.25c-.06.35-.13.71-.2,1l-.1.41a15.36,15.36,0,0,1-3.3-1.44,26,26,0,0,1-6.54-6.86A22.24,22.24,0,0,1,198,90.15a43.86,43.86,0,0,1-.59-9.9A81.11,81.11,0,0,1,201.77,59.86Z" style="fill:#efb310"/><path d="M241.44,61,240,55.31l-3.15,5.17v0A70.68,70.68,0,0,1,231,67.9c-2.08,2.32-4.09,4.49-6.49,6.71s-4.71,4.93-7.08,7.36a102,102,0,0,0-6.77,8,27.16,27.16,0,0,0-4.88,9.29c-1,3.5-1.65,6.83-1.08,10.35a22.07,22.07,0,0,0,3.9,9.67,15,15,0,0,0,8.14,5.92h0a16.71,16.71,0,0,0,9.94-.25c3.2-1.09,6.34-1.55,8.67-4,4.67-5,7.26-13,8.56-19.73A78.52,78.52,0,0,0,244.7,81,121.12,121.12,0,0,0,241.44,61Z" style="fill:#ffdf1b"/><path d="M241.44,61,240,55.31l-3.15,5.17v0A70.68,70.68,0,0,1,231,67.9c-2.08,2.32-4.39,4.47-6.79,6.7s-4.64,4.77-7,7.2a93.29,93.29,0,0,0-6.52,7.55,31.63,31.63,0,0,0-5.11,10,23.06,23.06,0,0,0-.89,10.29,22.07,22.07,0,0,0,3.9,9.67,15,15,0,0,0,8.14,5.92h0a16.71,16.71,0,0,0,9.94-.25c3.2-1.09,6.52-1.55,8.85-4,4.67-5,7.08-13,8.38-19.73A78.52,78.52,0,0,0,244.7,81,121.12,121.12,0,0,0,241.44,61Zm-.64,39.49a51.91,51.91,0,0,1-2.22,9.24,35.59,35.59,0,0,1-3.68,8.79c-2.07,3.28-3.5,4.44-6.5,5.81-.94.35-3.76-1.61-4.93-1.48l0-.39c0-.31,0-.64,0-1q0-1,.19-2.09a34.59,34.59,0,0,1,.84-4.32,45.56,45.56,0,0,1,1.38-4.35c.52-1.4,1.19-3,1.78-4.51,1.21-3.06,2.38-6.13,3.45-9.25.54-1.56,1-3.13,1.49-4.72a24.69,24.69,0,0,0,1-4.83l-.82,1.94c-.4.82-.85,1.62-1.3,2.41-.81,1.39-1.69,2.75-2.59,4.09-1.79,2.69-3.68,5.32-5.6,7.94-1,1.34-1.73,2.34-2.75,3.79s-2,3.07-3.16,4.95c-.94,1.52-1.84,3.23-2.84,5.16-.77,1.48-1.14,2.27-1.14,2.27a7.17,7.17,0,0,1-3.2-3.22,12.52,12.52,0,0,1-1.88-7.92,19.48,19.48,0,0,1,2.24-7.92,42.39,42.39,0,0,1,4.88-7.77c4-5.13,7.76-9.12,12.25-14,2.58-2.81,5.08-5.37,7.24-8.11.86-1.12,2.42-2.83,3.18-4,.27,1.15.62,3.66.85,4.81.67,3.17,1.23,6.38,1.64,9.6A73.3,73.3,0,0,1,240.81,100.52Z" style="fill:#efb310"/><path d="M244.06,106.68l-3.08-5-1.52,5.94v0a72,72,0,0,1-3.44,8.9c-1.33,2.88-2.63,5.57-4.29,8.45s-3.11,6.19-4.68,9.26a103.39,103.39,0,0,0-4.18,9.8,27.54,27.54,0,0,0-2,10.43c.07,3.67.42,7.06,2,10.27a21.75,21.75,0,0,0,6.63,8.07,15,15,0,0,0,9.63,3.16h0a17.18,17.18,0,0,0,9.54-3.31,23.59,23.59,0,0,0,6.91-8.09c3.06-6.21,3.48-13.19,2.75-20a77.9,77.9,0,0,0-5.26-19.66A119.62,119.62,0,0,0,244.06,106.68Z" style="fill:#ffdf1b"/><path d="M244.06,106.68l-3.08-5-1.52,5.94v0a72,72,0,0,1-3.44,8.9c-1.33,2.88-2.93,5.65-4.59,8.53s-3.08,6-4.65,9.08a94.58,94.58,0,0,0-4.08,9.26,32,32,0,0,0-2,11.19,23,23,0,0,0,2.18,10.15,21.75,21.75,0,0,0,6.63,8.07,15,15,0,0,0,9.63,3.16h0a17.18,17.18,0,0,0,9.54-3.31,23.59,23.59,0,0,0,6.91-8.09c3.06-6.21,3.48-13.19,2.75-20a77.9,77.9,0,0,0-5.26-19.66A119.62,119.62,0,0,0,244.06,106.68ZM255.24,145a41,41,0,0,1,.36,9.25,21,21,0,0,1-2.22,8.63,24.71,24.71,0,0,1-5.47,7.06,14.63,14.63,0,0,1-2.94,1.69l-.14-.37c-.09-.29-.19-.62-.28-.94-.17-.66-.32-1.34-.44-2.06a34.67,34.67,0,0,1-.46-4.41,15.06,15.06,0,0,1,.83-4.53,18.91,18.91,0,0,0,.66-4.16c.26-3.31.49-6.62.6-9.94.06-1.66.09-3.33,0-5a24.47,24.47,0,0,0-.49-4.94l-.22,2.11c-.14.91-.34,1.82-.55,2.72-.38,1.58-.82,3.16-1.29,4.73-.94,3.14-2,6.24-3.07,9.35-.53,1.58-2,2-2.6,3.69s-1,3.57-1.6,5.72c-.46,1.75-.82,3.67-1.22,5.83-.31,1.66-.43,2.53-.43,2.53a7.14,7.14,0,0,1-4-2.1,12.35,12.35,0,0,1-4.15-7,19.54,19.54,0,0,1-.17-8.3,43.23,43.23,0,0,1,2.43-9c2.33-6.15,4.81-11.15,7.71-17.25,1.66-3.5,3.33-6.72,4.6-10,.51-1.34,1.5-3.46,1.89-4.84.6,1,1.68,3.32,2.25,4.35,1.58,2.84,3.07,5.74,4.43,8.71A74.31,74.31,0,0,1,255.24,145Z" style="fill:#efb310"/><path d="M190.76,114.64a97,97,0,0,0,5.64,22c2.9,7,6.87,13.56,12.7,17.84a22.25,22.25,0,0,0,10.1,3.92,15.54,15.54,0,0,0,9.89-2.21h0a16.17,16.17,0,0,0,6.62-8.53,27.08,27.08,0,0,0,1.52-11.6A28.71,28.71,0,0,0,233.66,125a30.67,30.67,0,0,0-7.08-9,109.66,109.66,0,0,0-8.64-7.13c-2.94-2.07-5.87-4.51-8.8-6.31s-5.42-3.72-8-5.75a75.13,75.13,0,0,1-7.55-6.67v0l-2.72-.72-1.68,2.47A151.36,151.36,0,0,0,190.76,114.64Z" style="fill:#ffdf1b"/><path d="M190.76,114.64a97,97,0,0,0,5.64,22c2.9,7,6.87,13.56,12.7,17.84a22.25,22.25,0,0,0,10.1,3.92,15.54,15.54,0,0,0,9.89-2.21h0a16.17,16.17,0,0,0,6.62-8.53,27.08,27.08,0,0,0,1.52-11.6A28.28,28.28,0,0,0,233.87,125a35.73,35.73,0,0,0-7.48-9.72,99.54,99.54,0,0,0-8.28-6.66c-2.94-2.08-5.75-4.36-8.68-6.16s-5.71-3.63-8.34-5.66a75.13,75.13,0,0,1-7.55-6.67v0l-2.84-1.09-1.79,3.17A147,147,0,0,0,190.76,114.64Zm4.15-.56c-.37-3.64-.6-7.3-.7-11,0-1.32-.3-4.16-.32-5.49,1,1.11,3,2.6,4.12,3.61,2.8,2.48,5.89,4.66,9.12,7.1,5.64,4.27,10.35,7.7,15.52,12.34a46.85,46.85,0,0,1,6.71,7.31,23.18,23.18,0,0,1,4.14,8.14,15.55,15.55,0,0,1,.06,9.17,8,8,0,0,1-2.39,4.33s-.55-.77-1.67-2.21c-1.46-1.87-2.76-3.52-4.06-5-1.59-1.77-3-3.35-4.33-4.64s-2.36-2.24-3.64-3.47c-2.53-2.39-5-4.81-7.46-7.32-1.21-1.25-2.41-2.53-3.55-3.85-.64-.75-1.28-1.52-1.87-2.33l-1.28-1.92a30,30,0,0,0,2.14,5.07c.83,1.63,1.71,3.23,2.62,4.81,1.81,3.15,3.72,6.24,5.65,9.29,1,1.51,2,3.1,2.86,4.5s1.69,2.94,2.42,4.44a41.82,41.82,0,0,1,1.88,4.53q.4,1.14.69,2.25c.09.36.17.73.25,1.07l.08.43a13,13,0,0,1-3.4,0,23.63,23.63,0,0,1-8.34-3.73,22.79,22.79,0,0,1-6.36-7.1,48.23,48.23,0,0,1-4.47-9.17A93.24,93.24,0,0,1,194.91,114.08Z" style="fill:#efb310"/><path d="M211.1,166.34a96.31,96.31,0,0,0,17.14,15.85c6.52,4.49,13.8,8,21.67,8.67A27.07,27.07,0,0,0,261.68,189a17.35,17.35,0,0,0,8.31-6.94h0a14.94,14.94,0,0,0,1.81-10.64,24.53,24.53,0,0,0-4.71-10.64c-2.42-3.26-5.66-5.49-9.34-7.6a34.61,34.61,0,0,0-11.57-4c-3.91-.7-8.14-1.33-12.08-1.64s-8-.83-11.79-.87-7.17-.39-10.77-.77a88.84,88.84,0,0,1-10.78-1.81h0l-7-1.12,3.66,4.86A142.77,142.77,0,0,0,211.1,166.34Z" style="fill:#ffdf1b"/><path d="M211.1,166.34a96.31,96.31,0,0,0,17.14,15.85c6.52,4.49,13.8,8,21.67,8.67A27.07,27.07,0,0,0,261.68,189a17.35,17.35,0,0,0,8.31-6.94h0a14.94,14.94,0,0,0,1.81-10.64,24.53,24.53,0,0,0-4.71-10.64,28.51,28.51,0,0,0-9.12-7.69,40.24,40.24,0,0,0-12.34-4.44c-3.92-.69-7.56-1.12-11.48-1.43s-7.84-.76-11.6-.8-7.41-.16-11-.54a88.84,88.84,0,0,1-10.78-1.81h0L192,142l4.44,6.16C201.21,154.52,206,160.49,211.1,166.34Zm3.69-2.6c-2.29-2.91-4.46-5.9-6.5-9-.75-1.1-2.51-3.38-3.23-4.5,1.59.41,4.26.68,5.87,1,4,.67,8.12.95,12.52,1.37,7.68.74,14,1.25,21.45,2.55a53.66,53.66,0,0,1,10.33,2.77,24.7,24.7,0,0,1,8.29,4.8,14.49,14.49,0,0,1,4.93,7.76,7.25,7.25,0,0,1,0,4.91s-.94-.37-2.78-1c-2.39-.84-4.52-1.58-6.53-2.14-2.47-.69-4.66-1.3-6.62-1.73s-3.46-.7-5.33-1.09c-3.7-.74-7.39-1.51-11-2.4-1.83-.45-3.65-.91-5.45-1.45-1-.31-2-.64-3-1l-2.25-1a30.76,30.76,0,0,0,4.74,3.22c1.66,1,3.35,1.87,5.07,2.75,3.42,1.75,6.89,3.4,10.36,5,1.71.8,3.57,1.61,5.14,2.37s3.18,1.63,4.68,2.54a43.42,43.42,0,0,1,4.22,2.89c.66.51,1.28,1,1.86,1.56l.8.78.3.33a15.42,15.42,0,0,1-3.23,1.77,28.81,28.81,0,0,1-10,1.09,26.09,26.09,0,0,1-9.87-2.78,51.36,51.36,0,0,1-9.17-5.5A91.26,91.26,0,0,1,214.79,163.73Z" style="fill:#efb310"/><path d="M250.66,159.27A85.93,85.93,0,0,0,257,179.52c3.12,6.44,7.27,12.39,13.19,16.23a23.34,23.34,0,0,0,10.13,3.43,16.06,16.06,0,0,0,9.72-2.23h0a14.76,14.76,0,0,0,6.26-8,23.24,23.24,0,0,0,1.09-10.74c-.44-3.7-2-6.9-3.93-10.18a29.47,29.47,0,0,0-7.33-8.16,107.49,107.49,0,0,0-8.81-6.42c-3-1.86-6-4.05-8.93-5.66s-5.49-3.33-8.16-5.16a76.38,76.38,0,0,1-8.15-5.61v0l-3.89-3.34,0,4.64A131,131,0,0,0,250.66,159.27Z" style="fill:#ffdf1b"/><path d="M250.66,159.27A85.93,85.93,0,0,0,257,179.52c3.12,6.44,7.27,12.39,13.19,16.23a23.34,23.34,0,0,0,10.13,3.43,16.06,16.06,0,0,0,9.72-2.23h0a14.76,14.76,0,0,0,6.26-8,23.24,23.24,0,0,0,1.09-10.74A25.32,25.32,0,0,0,293.7,168a34.41,34.41,0,0,0-7.74-8.83,98.28,98.28,0,0,0-8.43-6c-3-1.87-5.85-3.92-8.81-5.52s-5.78-3.25-8.45-5.07a76.38,76.38,0,0,1-8.15-5.61v0l-3.92-3.41.07,4.7A131,131,0,0,0,250.66,159.27Zm4.09-.6c-.49-3.36-.85-6.73-1.08-10.1-.09-1.22-.45-3.84-.51-5.06,1.07,1,3.06,2.34,4.2,3.26,2.86,2.23,6,4.19,9.28,6.38,5.73,3.83,10.51,6.91,15.79,11.1a45.8,45.8,0,0,1,6.9,6.62,21.36,21.36,0,0,1,4.38,7.44,13.42,13.42,0,0,1,.38,8.46,7.15,7.15,0,0,1-2.21,4s-.57-.7-1.73-2c-1.52-1.7-2.86-3.2-4.2-4.5-1.64-1.6-3.1-3-4.44-4.2s-2.42-2-3.72-3.14c-2.59-2.16-5.15-4.35-7.64-6.62-1.25-1.13-2.47-2.29-3.65-3.49-.66-.68-1.32-1.38-1.94-2.11L263.25,163a27.17,27.17,0,0,0,2.29,4.64c.87,1.49,1.8,2.95,2.76,4.38,1.9,2.88,3.9,5.69,5.92,8.48,1,1.37,2.09,2.82,3,4.11s1.78,2.68,2.55,4.05a38.28,38.28,0,0,1,2,4.15q.44,1.05.76,2.06c.1.33.2.67.28,1l.09.4a13.73,13.73,0,0,1-3.36.1,24.69,24.69,0,0,1-8.38-3.29,22.29,22.29,0,0,1-6.54-6.44,44.67,44.67,0,0,1-4.75-8.38A82,82,0,0,1,254.75,158.67Z" style="fill:#efb310"/><path d="M284.88,172.22a72.4,72.4,0,0,0,10.41,14.53c4.19,4.33,9.08,8,14.82,9.52a19.64,19.64,0,0,0,9,.08,13.52,13.52,0,0,0,7.19-4.34h0a12.43,12.43,0,0,0,2.9-8.05,19.6,19.6,0,0,0-1.95-8.88,21.7,21.7,0,0,0-5.82-7.11,24.81,24.81,0,0,0-8-4.6,90.13,90.13,0,0,0-8.73-2.82c-2.87-.71-5.84-1.68-8.63-2.19s-5.27-1.22-7.89-2a64.27,64.27,0,0,1-8-2.35l-4.88-1.85,2.12,3.89A110.42,110.42,0,0,0,284.88,172.22Z" style="fill:#ffdf1b"/><path d="M284.88,172.22a72.4,72.4,0,0,0,10.41,14.53c4.19,4.33,9.08,8,14.82,9.52a19.64,19.64,0,0,0,9,.08,13.52,13.52,0,0,0,7.19-4.34h0a12.43,12.43,0,0,0,2.9-8.05,19.6,19.6,0,0,0-1.95-8.88,21.33,21.33,0,0,0-5.65-7.15,29,29,0,0,0-8.52-5,83.24,83.24,0,0,0-8.32-2.58c-2.88-.71-5.71-1.6-8.5-2.1s-5.48-1.08-8.1-1.84a78.39,78.39,0,0,1-8.79-2.71c-2.59-1.09-4.85-2.3-4.85-2.3l2.55,5A108.61,108.61,0,0,0,284.88,172.22Zm3.12-1.55c-1.28-2.56-2.45-5.17-3.52-7.8-.39-1-1.37-3-1.74-3.92,1.12.52,3.06,1.07,4.22,1.5,2.88,1,5.9,1.77,9.1,2.66,5.59,1.56,10.23,2.77,15.56,4.73a38.59,38.59,0,0,1,7.26,3.48,18,18,0,0,1,5.46,4.8,11.32,11.32,0,0,1,2.53,6.67,6,6,0,0,1-.71,3.82s-.64-.41-1.91-1.15c-1.66-1-3.13-1.8-4.54-2.5-1.73-.85-3.28-1.6-4.62-2.28s-2.64-1.33-4.2-2.07c-2.57-1.22-3.73-1.78-6.3-3.06-1.27-.63-2.62-1.3-3.88-1.95-.71-.37-1.42-.76-2.1-1.18l-1.53-1a20.62,20.62,0,0,0,2.71,3.12c1.09,1,2.39,2.06,3.54,3,2.28,1.81,4.23,3.24,6.58,4.93,1.15.84,2.4,1.67,3.45,2.47s1.54,2.32,2.52,3.21a32.18,32.18,0,0,1,2.71,2.78q.62.73,1.15,1.45c.17.24.34.48.48.71l.18.29a11.56,11.56,0,0,1-2.66,1,20.8,20.8,0,0,1-7.57-.43,18.79,18.79,0,0,1-6.93-3.43,37.67,37.67,0,0,1-6-5.46A69.09,69.09,0,0,1,288,170.67Z" style="fill:#efb310"/><path d="M402.88,18.95l-5.18-2.21,2.11,5.38h0a67.31,67.31,0,0,1,2.27,8.7c.57,2.93,1.06,5.7,1.36,8.81s1,6.44,1.51,9.64a97.69,97.69,0,0,0,2.2,9.79,25.93,25.93,0,0,0,4.25,9.08,22.42,22.42,0,0,0,7.25,6.8,21.08,21.08,0,0,0,9.61,2.62,14.36,14.36,0,0,0,9.21-2.77h0A16,16,0,0,0,443,67.1a21.83,21.83,0,0,0,.86-10c-1.07-6.42-4.62-12-9-16.87A75.07,75.07,0,0,0,420,28,115.91,115.91,0,0,0,402.88,18.95Z" style="fill:#ffdf1b"/><path d="M402.88,18.95l-5.18-2.21,2.11,5.38h0a67.31,67.31,0,0,1,2.27,8.7c.57,2.93.86,5.92,1.18,9s.95,6.28,1.43,9.49a89.14,89.14,0,0,0,2,9.32,30.17,30.17,0,0,0,4.67,9.67A22,22,0,0,0,418.66,75a21.08,21.08,0,0,0,9.61,2.62,14.36,14.36,0,0,0,9.21-2.77h0A16,16,0,0,0,443,67.1a21.83,21.83,0,0,0,.86-10c-1.07-6.42-4.62-12-9-16.87A75.07,75.07,0,0,0,420,28,115.91,115.91,0,0,0,402.88,18.95Zm29.88,23.39a38.9,38.9,0,0,1,5.4,6.92,19.68,19.68,0,0,1,3.06,7.83,23,23,0,0,1-.33,8.38,13.71,13.71,0,0,1-1.35,2.89l-.31-.21-.74-.57c-.5-.41-1-.86-1.48-1.35a32.76,32.76,0,0,1-2.8-3.14,43.1,43.1,0,0,1-2.52-3.56c-.77-1.2-1.59-2.64-2.4-4-1.63-2.68-3.29-5.35-5-8-.87-1.31-1.77-2.61-2.73-3.86a23.51,23.51,0,0,0-3.12-3.53l1,1.74c.4.78.75,1.58,1.08,2.38.59,1.42,1.12,2.87,1.62,4.33,1,2.92,1.92,5.87,2.81,8.84.46,1.5.78,2.67,1.29,4.28s1.18,3.3,1.94,5.26c.61,1.59,1.39,3.26,2.28,5.14.68,1.44,1.07,2.18,1.07,2.18a6.85,6.85,0,0,1-4.3.58,12,12,0,0,1-7.11-3.15,18.63,18.63,0,0,1-4.73-6.28,40.44,40.44,0,0,1-3.09-8.2c-1.61-6-2.45-11.17-3.59-17.42-.65-3.58-1.15-7-2-10.19-.35-1.3-.76-3.47-1.22-4.74,1,.46,3.14,1.64,4.15,2.13,2.8,1.32,5.56,2.75,8.25,4.3A71.76,71.76,0,0,1,432.76,42.33Z" style="fill:#efb310"/><path d="M442.65,38.1l-2.74-5.75-2.23,6.14v0a76,76,0,0,1-4.58,9.07c-1.71,2.9-3.37,5.62-5.44,8.49s-3.94,6.22-5.93,9.3a111.57,111.57,0,0,0-5.45,9.94,29.41,29.41,0,0,0-3.19,10.87c-.31,3.92-.29,7.57,1.06,11.19a23.83,23.83,0,0,0,6.19,9.41,16.25,16.25,0,0,0,9.88,4.53h0a18.06,18.06,0,0,0,10.47-2.38,24.69,24.69,0,0,0,8.16-7.79c3.89-6.24,5.07-13.64,5-21a84.88,84.88,0,0,0-3.52-21.59A131.08,131.08,0,0,0,442.65,38.1Z" style="fill:#ffdf1b"/><path d="M442.65,38.1l-2.74-5.75-2.23,6.14v0a76,76,0,0,1-4.58,9.07c-1.71,2.9-3.7,5.67-5.76,8.54s-3.89,6-5.88,9.12a101.7,101.7,0,0,0-5.29,9.37,34.2,34.2,0,0,0-3.27,11.69,24.91,24.91,0,0,0,1.25,11.07,23.83,23.83,0,0,0,6.19,9.41,16.25,16.25,0,0,0,9.88,4.53h0a18.06,18.06,0,0,0,10.47-2.38,24.69,24.69,0,0,0,8.16-7.79c3.89-6.24,5.07-13.64,5-21a84.88,84.88,0,0,0-3.52-21.59A131.08,131.08,0,0,0,442.65,38.1Zm7.84,42.16a43.83,43.83,0,0,1-.59,9.9,22.24,22.24,0,0,1-3.25,8.93,26,26,0,0,1-6.54,6.86,15.42,15.42,0,0,1-3.3,1.44l-.1-.41c-.07-.32-.14-.68-.2-1q-.17-1.08-.25-2.25a36.85,36.85,0,0,1,0-4.75c.09-1.62.27-3.26.53-4.9s.63-3.43.93-5.15c.63-3.49,1.22-7,1.68-10.52.24-1.77.44-3.53.58-5.31a26.66,26.66,0,0,0,0-5.33L439.48,70c-.25,1-.55,1.9-.86,2.83-.56,1.64-1.21,3.27-1.87,4.88-1.32,3.23-2.76,6.42-4.23,9.59-.73,1.62-1.33,2.85-2.1,4.6s-1.48,3.68-2.29,5.91c-.67,1.81-1.26,3.8-1.91,6.06-.5,1.73-.72,2.64-.72,2.64a7.74,7.74,0,0,1-4.07-2.73,13.53,13.53,0,0,1-3.67-8,21.1,21.1,0,0,1,.69-8.86A45.79,45.79,0,0,1,422,77.64c3.12-6.27,6.27-11.3,10-17.45,2.13-3.52,4.23-6.76,5.93-10.12.67-1.36,2-3.51,2.51-4.92.52,1.16,1.43,3.74,1.93,4.91,1.39,3.21,2.66,6.49,3.78,9.81A81,81,0,0,1,450.49,80.25Z" style="fill:#efb310"/><path d="M403.17,81a78.54,78.54,0,0,0,.74,20.25c1.29,6.7,3.89,14.78,8.56,19.73,2.33,2.45,5.47,2.91,8.67,4a16.71,16.71,0,0,0,9.94.25h0a15,15,0,0,0,8.14-5.92,22.07,22.07,0,0,0,3.9-9.67c.56-3.53-.08-6.85-1.08-10.35A27.16,27.16,0,0,0,437.17,90a101.93,101.93,0,0,0-6.77-8c-2.37-2.43-4.66-5.17-7.08-7.36s-4.41-4.39-6.49-6.71A70.56,70.56,0,0,1,411,60.5v0l-3.15-5.17L406.42,61A121.17,121.17,0,0,0,403.17,81Z" style="fill:#ffdf1b"/><path d="M403.17,81a78.54,78.54,0,0,0,.74,20.25c1.29,6.7,3.7,14.78,8.38,19.73,2.33,2.45,5.65,2.91,8.85,4a16.71,16.71,0,0,0,9.94.25h0a15,15,0,0,0,8.14-5.92,22.07,22.07,0,0,0,3.9-9.67,23.05,23.05,0,0,0-.89-10.29,31.65,31.65,0,0,0-5.11-10,93.1,93.1,0,0,0-6.52-7.55c-2.37-2.44-4.58-5-7-7.2s-4.7-4.38-6.79-6.7A70.56,70.56,0,0,1,411,60.5v0l-3.15-5.17L406.42,61A121.17,121.17,0,0,0,403.17,81Zm4.09.42c.42-3.22,1-6.43,1.64-9.6.24-1.15.59-3.66.85-4.81.77,1.18,2.32,2.9,3.18,4,2.16,2.74,4.66,5.3,7.24,8.11,4.5,4.91,8.28,8.9,12.25,14a42.42,42.42,0,0,1,4.88,7.77,19.53,19.53,0,0,1,2.24,7.92,12.52,12.52,0,0,1-1.87,7.92,7.17,7.17,0,0,1-3.2,3.22s-.36-.79-1.13-2.27c-1-1.93-1.9-3.64-2.84-5.16-1.15-1.87-2.17-3.54-3.16-4.95s-1.79-2.45-2.75-3.79c-1.92-2.62-3.8-5.25-5.6-7.94-.9-1.35-1.77-2.7-2.59-4.09-.46-.79-.9-1.59-1.3-2.41l-.82-1.94a24.9,24.9,0,0,0,1,4.83c.45,1.59,1,3.16,1.49,4.72,1.07,3.12,2.25,6.19,3.45,9.25.59,1.51,1.27,3.11,1.78,4.51a45.42,45.42,0,0,1,1.38,4.35,35.05,35.05,0,0,1,.84,4.32q.14,1.07.19,2.09c0,.33,0,.67,0,1l0,.39c-1.17-.13-4,1.83-4.93,1.48-3-1.36-4.43-2.52-6.5-5.81a35.53,35.53,0,0,1-3.68-8.79,51.78,51.78,0,0,1-2.22-9.24A73.23,73.23,0,0,1,407.26,81.42Z" style="fill:#efb310"/><path d="M395.08,124.84a78,78,0,0,0-5.26,19.66c-.73,6.83-.31,13.81,2.75,20a23.61,23.61,0,0,0,6.91,8.09,17.19,17.19,0,0,0,9.54,3.31h0a15,15,0,0,0,9.63-3.16,21.73,21.73,0,0,0,6.63-8.07c1.59-3.21,1.95-6.6,2-10.27a27.56,27.56,0,0,0-2-10.43,103.42,103.42,0,0,0-4.18-9.8c-1.57-3.06-3-6.4-4.68-9.26s-3-5.58-4.29-8.45a72,72,0,0,1-3.44-8.9v0l-1.52-5.94-3.08,5A119.57,119.57,0,0,0,395.08,124.84Z" style="fill:#ffdf1b"/><path d="M395.08,124.84a78,78,0,0,0-5.26,19.66c-.73,6.83-.31,13.81,2.75,20a23.61,23.61,0,0,0,6.91,8.09,17.19,17.19,0,0,0,9.54,3.31h0a15,15,0,0,0,9.63-3.16,21.73,21.73,0,0,0,6.63-8.07,22.94,22.94,0,0,0,2.18-10.15,32.05,32.05,0,0,0-2-11.19,94.37,94.37,0,0,0-4.08-9.26c-1.57-3.08-3-6.23-4.65-9.08s-3.26-5.66-4.59-8.53a72,72,0,0,1-3.44-8.9v0l-1.52-5.94-3.08,5A119.57,119.57,0,0,0,395.08,124.84Zm3.84,1.67c1.35-3,2.84-5.87,4.43-8.71.57-1,1.65-3.33,2.25-4.35.39,1.37,1.39,3.5,1.89,4.84,1.28,3.3,2.94,6.53,4.6,10,2.9,6.1,5.38,11.1,7.71,17.25a43.23,43.23,0,0,1,2.43,9,19.54,19.54,0,0,1-.17,8.3,12.35,12.35,0,0,1-4.15,7,7.13,7.13,0,0,1-4,2.1s-.12-.87-.43-2.53c-.4-2.16-.77-4.08-1.22-5.83-.56-2.15-1.06-4.07-1.6-5.72s-2.06-2.11-2.6-3.69c-1.08-3.1-2.13-6.21-3.07-9.35-.47-1.57-.92-3.14-1.29-4.73-.21-.9-.4-1.81-.55-2.72l-.22-2.11a24.43,24.43,0,0,0-.49,4.94c0,1.66,0,3.32,0,5,.11,3.32.34,6.64.6,9.94a18.86,18.86,0,0,0,.66,4.16,15.06,15.06,0,0,1,.83,4.53,34.49,34.49,0,0,1-.46,4.41c-.12.72-.27,1.4-.44,2.06-.09.32-.19.64-.28.94l-.13.37a14.62,14.62,0,0,1-2.95-1.69,24.73,24.73,0,0,1-5.47-7.06,20.94,20.94,0,0,1-2.22-8.63A41,41,0,0,1,393,145,74.35,74.35,0,0,1,398.92,126.51Z" style="fill:#efb310"/><path d="M458.73,91.9,457,89.42l-2.72.72v0a75,75,0,0,1-7.55,6.67c-2.62,2-5.13,3.91-8,5.75s-5.86,4.24-8.8,6.31a109.51,109.51,0,0,0-8.64,7.13,30.66,30.66,0,0,0-7.08,9,28.72,28.72,0,0,0-3.58,11.09,27.09,27.09,0,0,0,1.52,11.6,16.18,16.18,0,0,0,6.62,8.53h0a15.55,15.55,0,0,0,9.9,2.21,22.26,22.26,0,0,0,10.1-3.92c5.83-4.28,9.8-10.81,12.7-17.84a97.11,97.11,0,0,0,5.64-22A151.3,151.3,0,0,0,458.73,91.9Z" style="fill:#ffdf1b"/><path d="M459,92.23l-1.79-3.17-2.84,1.09v0a75,75,0,0,1-7.55,6.67c-2.62,2-5.43,3.81-8.34,5.66s-5.74,4.08-8.68,6.16a99.53,99.53,0,0,0-8.28,6.66A35.72,35.72,0,0,0,414,125a28.28,28.28,0,0,0-3.37,11.07,27.09,27.09,0,0,0,1.52,11.6,16.18,16.18,0,0,0,6.62,8.53h0a15.55,15.55,0,0,0,9.9,2.21,22.26,22.26,0,0,0,10.1-3.92c5.83-4.28,9.8-10.81,12.7-17.84a97.11,97.11,0,0,0,5.64-22A147,147,0,0,0,459,92.23Zm-10.43,43.13a48.23,48.23,0,0,1-4.47,9.17,22.79,22.79,0,0,1-6.36,7.1,23.61,23.61,0,0,1-8.34,3.73,13,13,0,0,1-3.4,0l.08-.43c.07-.34.16-.71.25-1.07q.29-1.1.69-2.25a41.65,41.65,0,0,1,1.88-4.53c.73-1.5,1.54-3,2.42-4.44s1.91-3,2.86-4.5c1.93-3.05,3.84-6.14,5.66-9.29.91-1.58,1.79-3.17,2.62-4.81a30,30,0,0,0,2.14-5.07l-1.29,1.92c-.59.8-1.23,1.57-1.87,2.33-1.14,1.32-2.34,2.59-3.55,3.85-2.42,2.51-4.92,4.93-7.46,7.32-1.28,1.23-2.28,2.14-3.64,3.47s-2.74,2.87-4.33,4.64c-1.3,1.44-2.6,3.08-4.06,5-1.12,1.44-1.67,2.21-1.67,2.21a8,8,0,0,1-2.38-4.33,15.55,15.55,0,0,1,.06-9.17,23.13,23.13,0,0,1,4.14-8.14,46.79,46.79,0,0,1,6.71-7.31c5.18-4.64,9.88-8.07,15.52-12.34,3.23-2.44,6.32-4.62,9.12-7.1,1.12-1,3.08-2.5,4.12-3.61,0,1.33-.27,4.17-.32,5.49-.11,3.65-.33,7.31-.7,11A93.22,93.22,0,0,1,448.52,135.36Z" style="fill:#efb310"/><path d="M450.41,147.83l3.66-4.86-7,1.12h0a88.87,88.87,0,0,1-10.78,1.81c-3.6.38-7,.7-10.77.77s-7.88.6-11.79.87-8.17.94-12.08,1.64a34.61,34.61,0,0,0-11.57,4c-3.67,2.11-6.91,4.34-9.33,7.6a24.55,24.55,0,0,0-4.71,10.64,15,15,0,0,0,1.81,10.64h0a17.35,17.35,0,0,0,8.31,6.94A27.07,27.07,0,0,0,398,190.86c7.86-.65,15.14-4.18,21.67-8.67a96.27,96.27,0,0,0,17.14-15.85A142.83,142.83,0,0,0,450.41,147.83Z" style="fill:#ffdf1b"/><path d="M451.41,148.2l4.44-6.16-8.73,2.06h0a88.87,88.87,0,0,1-10.78,1.81c-3.6.38-7.23.46-11,.54s-7.67.53-11.6.8-7.57.74-11.48,1.43a40.24,40.24,0,0,0-12.34,4.44,28.51,28.51,0,0,0-9.12,7.69,24.55,24.55,0,0,0-4.71,10.64,15,15,0,0,0,1.81,10.64h0a17.35,17.35,0,0,0,8.31,6.94A27.07,27.07,0,0,0,398,190.86c7.86-.65,15.14-4.18,21.67-8.67a96.27,96.27,0,0,0,17.14-15.85C441.82,160.49,446.65,154.52,451.41,148.2Zm-33.9,31.37a51.35,51.35,0,0,1-9.17,5.5,26.09,26.09,0,0,1-9.87,2.78,28.81,28.81,0,0,1-10-1.09,15.4,15.4,0,0,1-3.23-1.77l.3-.33.8-.78c.58-.53,1.2-1,1.86-1.56a43.49,43.49,0,0,1,4.22-2.89q2.25-1.36,4.68-2.54c1.57-.76,3.43-1.57,5.14-2.37,3.48-1.61,6.94-3.25,10.36-5,1.71-.88,3.41-1.78,5.07-2.75a30.71,30.71,0,0,0,4.75-3.22l-2.25,1c-1,.38-2,.71-3,1-1.8.54-3.62,1-5.45,1.45-3.66.89-7.34,1.67-11,2.4-1.87.39-3.32.65-5.33,1.09s-4.15,1-6.62,1.73c-2,.56-4.13,1.29-6.53,2.14-1.84.65-2.78,1-2.78,1a7.24,7.24,0,0,1,0-4.91,14.49,14.49,0,0,1,4.93-7.76,24.7,24.7,0,0,1,8.29-4.8A53.68,53.68,0,0,1,403,155.16c7.43-1.3,13.77-1.81,21.45-2.55,4.4-.42,8.52-.7,12.52-1.37,1.61-.29,4.28-.55,5.87-1-.72,1.12-2.48,3.4-3.23,4.5-2,3.05-4.21,6-6.5,9A91.27,91.27,0,0,1,417.52,179.57Z" style="fill:#efb310"/><path d="M399.61,138.3l0-4.64L395.76,137v0a76.43,76.43,0,0,1-8.15,5.61c-2.67,1.83-5.22,3.52-8.16,5.16s-5.95,3.8-8.93,5.66a107.3,107.3,0,0,0-8.8,6.42,29.45,29.45,0,0,0-7.33,8.16c-1.95,3.28-3.5,6.48-3.93,10.18a23.25,23.25,0,0,0,1.09,10.74,14.76,14.76,0,0,0,6.26,8h0a16.05,16.05,0,0,0,9.72,2.23,23.35,23.35,0,0,0,10.13-3.43c5.91-3.84,10.07-9.79,13.19-16.23a85.91,85.91,0,0,0,6.36-20.25A131,131,0,0,0,399.61,138.3Z" style="fill:#ffdf1b"/><path d="M399.61,138.3l.07-4.7L395.76,137v0a76.43,76.43,0,0,1-8.15,5.61c-2.67,1.83-5.51,3.42-8.45,5.07s-5.83,3.65-8.81,5.52a98,98,0,0,0-8.43,6,34.45,34.45,0,0,0-7.74,8.83,25.33,25.33,0,0,0-3.72,10.16,23.25,23.25,0,0,0,1.09,10.74,14.76,14.76,0,0,0,6.26,8h0a16.05,16.05,0,0,0,9.72,2.23,23.35,23.35,0,0,0,10.13-3.43c5.91-3.84,10.07-9.79,13.19-16.23a85.91,85.91,0,0,0,6.36-20.25A131,131,0,0,0,399.61,138.3ZM388,178.24a44.72,44.72,0,0,1-4.75,8.38,22.3,22.3,0,0,1-6.54,6.44,24.69,24.69,0,0,1-8.38,3.29,13.74,13.74,0,0,1-3.36-.1l.09-.4c.08-.31.18-.65.28-1q.32-1,.76-2.06a38.08,38.08,0,0,1,2-4.15c.77-1.37,1.63-2.73,2.55-4.05s2-2.73,3-4.11c2-2.78,4-5.6,5.92-8.48,1-1.44,1.89-2.89,2.76-4.38a27.27,27.27,0,0,0,2.29-4.64l-1.33,1.75c-.62.73-1.27,1.43-1.94,2.11-1.18,1.2-2.4,2.35-3.65,3.49-2.49,2.27-5,4.45-7.64,6.62-1.3,1.11-2.33,1.93-3.72,3.14s-2.8,2.6-4.44,4.2c-1.33,1.3-2.68,2.8-4.2,4.5-1.16,1.3-1.73,2-1.73,2a7.15,7.15,0,0,1-2.21-4,13.43,13.43,0,0,1,.38-8.46,21.35,21.35,0,0,1,4.38-7.44,45.82,45.82,0,0,1,6.9-6.62c5.28-4.19,10.06-7.27,15.79-11.1,3.29-2.19,6.42-4.15,9.28-6.38,1.15-.92,3.13-2.25,4.21-3.26-.06,1.23-.42,3.84-.51,5.06-.23,3.37-.58,6.75-1.08,10.1A82,82,0,0,1,388,178.24Z" style="fill:#efb310"/><path d="M372.85,156.07l2.12-3.89L370.1,154a64.35,64.35,0,0,1-8,2.35c-2.62.76-5.1,1.44-7.89,2s-5.76,1.48-8.63,2.19a90.35,90.35,0,0,0-8.73,2.82,24.81,24.81,0,0,0-8,4.6,21.69,21.69,0,0,0-5.82,7.11,19.6,19.6,0,0,0-1.95,8.88A12.43,12.43,0,0,0,324,192h0a13.52,13.52,0,0,0,7.19,4.34,19.64,19.64,0,0,0,9-.08c5.74-1.52,10.64-5.19,14.82-9.52a72.28,72.28,0,0,0,10.41-14.53A110.38,110.38,0,0,0,372.85,156.07Z" style="fill:#ffdf1b"/><path d="M373.19,156.39l2.55-5s-2.26,1.21-4.85,2.3a78.48,78.48,0,0,1-8.79,2.71c-2.62.76-5.31,1.29-8.1,1.84s-5.62,1.39-8.5,2.1a83.11,83.11,0,0,0-8.32,2.58,29,29,0,0,0-8.52,5,21.33,21.33,0,0,0-5.65,7.15,19.6,19.6,0,0,0-1.95,8.88A12.43,12.43,0,0,0,324,192h0a13.52,13.52,0,0,0,7.19,4.34,19.64,19.64,0,0,0,9-.08c5.74-1.52,10.64-5.19,14.82-9.52a72.28,72.28,0,0,0,10.41-14.53A108.67,108.67,0,0,0,373.19,156.39ZM353.06,185a37.73,37.73,0,0,1-6,5.46,18.78,18.78,0,0,1-6.93,3.43,20.81,20.81,0,0,1-7.57.43,11.55,11.55,0,0,1-2.66-1l.18-.29c.15-.23.31-.47.48-.71.35-.48.73-1,1.15-1.45a32.11,32.11,0,0,1,2.71-2.78c1-.9,1.43-2.4,2.52-3.21s2.3-1.63,3.45-2.47c2.35-1.7,4.3-3.13,6.58-4.93,1.14-.9,2.44-2,3.54-3a20.54,20.54,0,0,0,2.71-3.12l-1.53,1c-.68.42-1.39.81-2.1,1.18-1.26.65-2.54,1.25-3.84,1.83-2.59,1.16-3.78,2-6.35,3.18-1.56.74-2.75,1.36-4.2,2.07L330.58,183c-1.41.69-2.88,1.54-4.54,2.5-1.27.74-1.91,1.15-1.91,1.15a6,6,0,0,1-.71-3.82,11.31,11.31,0,0,1,2.53-6.67,18,18,0,0,1,5.46-4.8,38.58,38.58,0,0,1,7.26-3.48c5.33-2,10-3.17,15.56-4.73,3.2-.89,6.23-1.63,9.1-2.66,1.16-.43,3.1-1,4.22-1.5-.37,1-1.34,3-1.74,3.92-1.07,2.63-2.24,5.24-3.52,7.8A69.13,69.13,0,0,1,353.06,185Z" style="fill:#efb310"/><path d="M532.68,554.21c-48.86,0-76.58,14.94-113.3,37.75-32.43,20.14-69.26,27.7-93.12,28.07h0l-2.15,0c-24.1,0-61.7-7.38-95-28.08-36.72-22.8-64.44-37.75-113.3-37.75-45.57,0-82,19.45-97.55,52,.12,25.19,9.57,49.76,14.64,57.37.39.58.82,1.25,1.31,2,3.36,5.21,8.83,13.68,17.87,21.22,7.41-13.48,22.47-34.73,46.21-41.24a86.62,86.62,0,0,1,22.9-3.11c25.69,0,47.7,11.43,64,21.39l.7.43c24.34,14.86,65,39.72,137.66,39.84l.29,0h.52c73,0,113.79-24.94,138.2-39.85l.7-.43c16.31-10,38.33-21.39,64-21.39a86.63,86.63,0,0,1,22.9,3.11c23.75,6.51,38.8,27.76,46.21,41.24,9-7.54,14.52-16,17.87-21.21.49-.77.93-1.44,1.32-2,5.07-7.61,14.53-32.18,14.64-57.37C614.67,573.66,578.25,554.21,532.68,554.21Z" style="fill:#00529c"/><path d="M50.36,608.15c1.27-.71,3.86-2,5.89-3.14,2.49-1.39,5-2.94,5.8-3.39.26,0,.83,1,.81,1.26a7.31,7.31,0,0,0-1.69,1.75c-.12.32,0,.71.43,1.12,2,1.8,11.1,9.15,13.12,10.69a.2.2,0,0,0,.23-.13c-.19-2.77-1.55-12.42-2.23-15.26-.28-1.5-.83-2.2-2-1.93A19.5,19.5,0,0,0,68,600a2.55,2.55,0,0,1-.6-1.43c.65-.36,2.08-1,4.84-2.5,2.49-1.39,3.62-2.17,4.5-2.67a2.43,2.43,0,0,1,.77,1.28,7.81,7.81,0,0,0-1.69,1.65c-.7,1.09-.69,2.19-.49,4.35.36,3.52,1.14,10.24,1.86,16.12a66.19,66.19,0,0,0,1.09,6.64,27.7,27.7,0,0,0-3.34,1.86c-1.46-1.35-3-2.73-5-4.28-5-4.14-9.24-7.62-11.91-9.7-2.83-2.19-3.82-2.7-5.28-2.34a11.57,11.57,0,0,0-1.84.58A2.46,2.46,0,0,1,50.36,608.15Z" style="fill:#ffdf1b"/><path d="M80.24,592.81c1.52-.46,3.4-.88,6.31-1.76,4.08-1.23,5.48-1.78,6.36-2.05a2.47,2.47,0,0,1,.43,1.43,17.62,17.62,0,0,0-2.06,1.08c-.82.61-.69,1.22-.37,2.45s1.25,4.3,2.33,7.92c1.53,5.09,2.41,8.18,3,9.79.27.75.6,1.7,1.87,1.64.56,0,1.65-.17,2.54-.26a2.46,2.46,0,0,1,.22,1.49c-1.74.48-3.36.87-6.35,1.77-3.79,1.14-5,1.64-6.61,2.12a1.78,1.78,0,0,1-.43-1.43c.85-.39,1.4-.7,1.83-.92,1-.58,1.17-1,.79-2.71-.36-1.5-1.81-6.34-2.83-9.75-1.34-4.46-1.95-6.48-2.62-8.25-.31-.87-.78-1.37-1.57-1.41a17.18,17.18,0,0,0-2.44.27A2.47,2.47,0,0,1,80.24,592.81Z" style="fill:#ffdf1b"/><path d="M103.29,587.09c1.05,0,4.48.05,6.15,0,3.34-.06,5.75-.24,8.34-.28,5.4-.1,8.4,2.62,8.47,6.57.06,3.43-2.14,5.53-5,6.73a.46.46,0,0,0,0,.35,58.12,58.12,0,0,0,7.16,9.49c1.56,1.47,1.83,1.59,4.08,1.82a3.4,3.4,0,0,1-.28,1.59c-2.59.27-7.07.13-8.89-.63a6.59,6.59,0,0,1-2.23-1.8,80.84,80.84,0,0,1-5.38-8.12,1.5,1.5,0,0,0-1.29-.77l-1.05,0c-.09,0-.17.18-.17.27,0,2.72.14,5.45.22,7.34.07,1.27.34,1.79,1.27,2a17.17,17.17,0,0,0,2.34.4c.22,0,.2,1.4-.06,1.5-1,0-3.08-.08-6.55,0-3.65.07-5.62.23-6.54.25-.18-.17-.29-1.31-.07-1.49a17,17,0,0,0,2-.39c.92-.24,1.22-.81,1.24-2.18s0-7.29,0-10c-.08-4.26-.13-6.94-.25-8.87-.07-1.18-.47-1.79-1.27-2a17.83,17.83,0,0,0-2.25-.36C103,588.32,103.07,587.18,103.29,587.09Zm10,1.88a1,1,0,0,0-.3.67c-.07,1,0,4.22.09,10,0,.18.14.35.27.35a11.59,11.59,0,0,0,4.74-.61c1.13-.59,1.95-1.75,1.9-4.52-.07-3.65-2.13-6.16-5.52-6.1A3.72,3.72,0,0,0,113.3,589Z" style="fill:#ffdf1b"/><path d="M138.71,587.74c1.56.24,3.45.67,6.45,1.14,4.21.66,5.71.75,6.62.9a2.47,2.47,0,0,1-.23,1.48,17.68,17.68,0,0,0-2.33.08c-1,.2-1.15.8-1.39,2.05s-.73,4.42-1.31,8.15c-.82,5.25-1.35,8.42-1.53,10.12-.08.79-.19,1.79,1,2.29.49.25,1.56.55,2.4.86a2.46,2.46,0,0,1-.45,1.44c-1.77-.32-3.41-.66-6.49-1.14-3.91-.61-5.23-.68-6.88-.94a1.77,1.77,0,0,1,.23-1.48c.93,0,1.56,0,2.05,0,1.17-.08,1.48-.39,1.88-2.11.32-1.51,1.1-6.5,1.65-10,.72-4.6,1-6.69,1.2-8.57a1.74,1.74,0,0,0-.81-1.95,17,17,0,0,0-2.32-.81A2.47,2.47,0,0,1,138.71,587.74Z" style="fill:#ffdf1b"/><path d="M159.46,591.17c1,.33,2.76,1,5.93,2.08s6.26,1.91,7.39,2.28c3.92,1.29,7.87,3.64,6.31,8.4-.74,2.25-3.07,3.85-6.35,3.7a.16.16,0,0,0-.08.25c3.51,2,5.59,4.65,4.39,8.33-1.07,3.26-3.48,5-7.31,5.37a20.11,20.11,0,0,1-7.54-1.13c-1.84-.6-8.7-3.08-11.54-4,0-.29.26-1.35.51-1.41a12.81,12.81,0,0,0,2.85.33c.69,0,1.15-.41,1.66-1.54s1.49-4.27,3-8.95c1.4-4.26,2.2-6.72,2.86-9,.29-1.15.13-1.67-.54-2.16a8.09,8.09,0,0,0-2-1.13A2.48,2.48,0,0,1,159.46,591.17ZM170.35,615c1.16-3.55-.28-6.47-4.25-7.77a12.74,12.74,0,0,0-1.31-.38.25.25,0,0,0-.29.18c-1,3-2.27,6.79-2.78,8.75a2.58,2.58,0,0,0,.15,1.53,4.53,4.53,0,0,0,2.36,2C166.78,620.16,169.15,618.72,170.35,615Zm-1.88-18.79c-.14,0-.36.25-.47.45-.48,1.18-1.84,5.32-2.74,8.07a.24.24,0,0,0,.14.28c.36.17,1,.38,1.95.68a7.51,7.51,0,0,0,2.92.54,3.85,3.85,0,0,0,2.71-2.9c1-3,.14-5.78-3.54-7A3.44,3.44,0,0,0,168.47,596.26Z" style="fill:#ffdf1b"/><path d="M186.21,600.19c1.47.71,3.63,1.89,6,3.05,2.61,1.26,4.69,2.11,6.31,2.89a2.19,2.19,0,0,1-.65,1.35c-.75-.26-1.46-.41-2-.56-1.1-.24-1.76.32-2.39,1.53-1.47,2.75-3.11,6.36-4.11,8.46a38.74,38.74,0,0,0-2.1,5.18c-.84,3,.19,5.7,4.07,7.56,2.65,1.28,6,1.77,9-3.38a122.1,122.1,0,0,0,5.54-11.33c.64-1.54.69-2.45-.48-3.35a16.56,16.56,0,0,0-2.15-1.52,2.5,2.5,0,0,1,.69-1.33c1.46.7,3,1.6,4.85,2.48,3,1.45,3.94,1.75,4.85,2.19a1.78,1.78,0,0,1-.65,1.35c-.65-.17-1.24-.35-1.83-.44-1.1-.24-1.71.2-2.76,2.09-.71,1.27-3.53,6.74-4.87,9.31-4.22,8-9.54,8.67-15.67,5.72-7.13-3.43-7.83-8.05-6.42-12.11,1-3.06,4-9.08,6.25-13.81a2,2,0,0,0-.35-2.61,12.39,12.39,0,0,0-1.87-1.39A3.44,3.44,0,0,1,186.21,600.19Z" style="fill:#ffdf1b"/><path d="M209.5,639.3a7.08,7.08,0,0,0,2.91,3,3.37,3.37,0,0,0,4.9-1.18c1-1.8.93-3.36-1.41-7.54-2.12-3.86-3.89-7.17-1.6-11.23,2.54-4.52,7.65-4.83,12.06-2.35a59.74,59.74,0,0,1,6,4.24,55,55,0,0,0-3.84,5.3,2.32,2.32,0,0,1-1.38-.68c1-2.53,1.09-3.92.54-5.09a4.84,4.84,0,0,0-2.38-2.49,3.58,3.58,0,0,0-5.1,1.37c-.9,1.61-.68,3.09.29,5s1.7,3.07,2.79,5c1.85,3.35,2.16,5.75.61,8.51-2.28,4.06-7.37,5.49-13.31,2.15a16.53,16.53,0,0,1-5.25-4.56c-.08-.85,1.52-5.5,2.24-6.86a2.16,2.16,0,0,1,1.58.33C208.52,635.38,208.68,637.43,209.5,639.3Z" style="fill:#ffdf1b"/><path d="M249.75,632.85c3.16,1.07,5.95,2.16,9.94,3.51a8.89,8.89,0,0,0-.11,2.93c.4,4.17,1.17,12.14,1.55,14.72a.2.2,0,0,0,.25.09c1.9-1.77,8.13-8.24,10.35-10.83a10.7,10.7,0,0,0,1.65-2.27c4.7,1.59,6.74,2.15,9.24,3,.14.14-.26,1.3-.48,1.42a20.42,20.42,0,0,0-2.71-.36c-1.13,0-1.48.66-1.84,1.74-1.09,2.93-4.58,14.32-5.34,17.26-.28,1.11-.4,2.14.68,2.78.53.36,1.3.81,2.2,1.3a2,2,0,0,1-.6,1.37c-1.37-.47-3-1.14-7-2.52-2.29-.78-4.12-1.26-6-1.88a2.47,2.47,0,0,1,.48-1.42,19.35,19.35,0,0,0,2.38.25c.75,0,1.11-.55,1.58-1.78,1.2-3.26,3.75-10.93,5.12-15,0-.06-.17-.06-.21-.07-3.31,3.61-12,12.91-14.3,15.89a7.55,7.55,0,0,1-1.89-.59c.16-3.75-.39-11-1.07-21.2a.63.63,0,0,0-.28,0c-1.35,3.16-4.65,11.37-5.65,14.32-.51,1.5-.4,2.14.68,2.92a18.14,18.14,0,0,0,2.48,1.44c.12.18-.33,1.24-.56,1.39-1.37-.47-3-1.14-5.7-2.07-1.62-.55-3.41-1-5-1.55a2.48,2.48,0,0,1,.48-1.42,20.09,20.09,0,0,0,2.21.33c1.28.06,2-.31,2.85-2.1,1.45-3,5.86-13,7.09-16.25a2,2,0,0,0-.36-2.35,18.24,18.24,0,0,0-2.77-1.68A3.27,3.27,0,0,1,249.75,632.85Z" style="fill:#ffdf1b"/><path d="M284,666.27c3.41-5.18,8.67-14.13,10.32-17a15.57,15.57,0,0,0,1.42-2.87c.64.16,1.45.36,2.23.5s1.56.24,2.18.31l.27,2.64c.74,4.47,2.36,14.91,3.12,19,.77,3.85.92,4.23,4.07,5.35a2.93,2.93,0,0,1-.44,1.44c-1.08-.2-3-.68-6.29-1.29-3.63-.67-5-.78-6.64-1.08a3.42,3.42,0,0,1,.27-1.47,7.56,7.56,0,0,0,2.23-.22.76.76,0,0,0,.58-.74,60.58,60.58,0,0,0-.9-6.29c-.07-.1-.2-.35-.38-.38-.68-.17-2.16-.4-3.28-.6-1.73-.32-2.85-.52-3.46-.59a.82.82,0,0,0-.55.3,34.28,34.28,0,0,0-2.63,5.06,1.32,1.32,0,0,0,.95,1.65c.66.3,1.28.55,2,.82a2.91,2.91,0,0,1-.4,1.45c-1.25-.23-2.92-.67-5.42-1.13-1.6-.29-3.39-.49-4.91-.77a2.47,2.47,0,0,1,.27-1.47C281.75,668.94,282.42,668.67,284,666.27Zm10.63-13.59c-1.31,2.26-3.09,5.64-4.15,7.5-.07.16-.06.3,0,.32.47.13,1.29.28,2.46.5,1.43.26,2.46.45,2.9.49,0,0,.15-.11.17-.19-.19-1.42-.81-6-1.24-8.58C294.74,652.7,294.61,652.64,294.61,652.68Z" style="fill:#ffdf1b"/><path d="M312.37,649.35c1.05,0,4.48.16,6.15.17,3.34,0,5.76-.09,8.35-.07,5.41,0,8.33,2.83,8.3,6.78,0,3.43-2.28,5.48-5.19,6.6a.47.47,0,0,0,0,.35,58.19,58.19,0,0,0,6.92,9.67c1.53,1.5,1.79,1.64,4,1.92a3.39,3.39,0,0,1-.32,1.58c-2.59.2-7.08,0-8.87-.85a6.6,6.6,0,0,1-2.18-1.86,80.94,80.94,0,0,1-5.17-8.25,1.5,1.5,0,0,0-1.27-.8H322c-.09,0-.18.17-.18.26,0,2.72,0,5.45,0,7.34,0,1.27.29,1.8,1.22,2.07a17.19,17.19,0,0,0,2.33.46c.22,0,.17,1.41-.1,1.49-1,0-3.08-.15-6.55-.18-3.65,0-5.63.09-6.55.09-.17-.18-.25-1.32,0-1.49a17.1,17.1,0,0,0,2-.34c.92-.21,1.24-.78,1.29-2.14s.18-7.29.2-10c0-4.26,0-6.94,0-8.88,0-1.19-.43-1.8-1.22-2a17.66,17.66,0,0,0-2.24-.41C312.06,650.58,312.15,649.44,312.37,649.35Zm10,2.14a1,1,0,0,0-.31.66c-.09,1-.12,4.22-.16,10,0,.18.13.35.26.35a11.6,11.6,0,0,0,4.75-.49c1.15-.56,2-1.7,2-4.47,0-3.65-2-6.21-5.36-6.23A3.7,3.7,0,0,0,322.33,651.49Z" style="fill:#ffdf1b"/><path d="M341.23,648.93c1.57-.2,3.5-.31,6.51-.69,4.23-.54,5.69-.85,6.61-1a2.48,2.48,0,0,1,.19,1.48,17.54,17.54,0,0,0-2.21.72c-.91.47-.88,1.09-.76,2.36s.52,4.45,1,8.2c.67,5.27,1,8.46,1.33,10.15.14.78.31,1.78,1.57,1.93.55.11,1.65.1,2.55.16a2.45,2.45,0,0,1,0,1.51c-1.79.18-3.46.31-6.56.7-3.92.5-5.21.79-6.87,1a1.77,1.77,0,0,1-.19-1.48c.9-.25,1.49-.46,2-.6,1.1-.4,1.32-.79,1.23-2.55-.11-1.54-.74-6.55-1.19-10.08-.59-4.62-.85-6.71-1.22-8.57-.16-.91-.54-1.48-1.32-1.65a17,17,0,0,0-2.45-.13A2.46,2.46,0,0,1,341.23,648.93Z" style="fill:#ffdf1b"/><path d="M370.18,644.24c1.37-.48,4.15-1.32,6.34-2.09,2.7-.95,5.43-2,6.3-2.35.25.05.64,1.17.58,1.38a7.33,7.33,0,0,0-2,1.43c-.18.29-.13.7.23,1.18,1.67,2.11,9.37,10.91,11.1,12.78a.2.2,0,0,0,.25-.09c.29-2.76.59-12.5.41-15.42,0-1.53-.44-2.31-1.68-2.25a19.58,19.58,0,0,0-2.79.42,2.55,2.55,0,0,1-.34-1.51c.7-.25,2.21-.59,5.2-1.64,2.7-.95,3.94-1.52,4.89-1.86a2.43,2.43,0,0,1,.54,1.4,7.79,7.79,0,0,0-2,1.34c-.87,1-1.05,2-1.23,4.2-.25,3.53-.63,10.28-.92,16.21a66,66,0,0,0-.06,6.73,27.68,27.68,0,0,0-3.61,1.27c-1.21-1.58-2.52-3.21-4.15-5.06-4.25-4.94-7.8-9.09-10.08-11.6s-3.3-3.31-4.8-3.2a11.56,11.56,0,0,0-1.91.25A2.46,2.46,0,0,1,370.18,644.24Z" style="fill:#ffdf1b"/><path d="M402.24,632.21c1.43-.67,3.24-1.37,6-2.65,3.86-1.8,5.16-2.55,6-2.94a2.47,2.47,0,0,1,.63,1.35,17.6,17.6,0,0,0-1.89,1.36c-.73.73-.51,1.3,0,2.47s1.85,4.08,3.45,7.51c2.25,4.82,3.56,7.75,4.37,9.26.37.7.84,1.6,2.09,1.35.55-.06,1.6-.41,2.47-.62a2.46,2.46,0,0,1,.43,1.45c-1.65.72-3.2,1.35-6,2.67-3.58,1.67-4.72,2.35-6.24,3.05a1.78,1.78,0,0,1-.63-1.35c.78-.51,1.28-.89,1.68-1.17.92-.72,1-1.15.39-2.8-.57-1.43-2.71-6-4.21-9.24-2-4.22-2.86-6.13-3.78-7.79a1.74,1.74,0,0,0-1.76-1.17,17,17,0,0,0-2.38.62A2.47,2.47,0,0,1,402.24,632.21Z" style="fill:#ffdf1b"/><path d="M436,618.15a10.12,10.12,0,0,0-5.11,1.29c-4.16,2.09-5.41,6.75-1.83,13.86,2.69,5.34,7.92,9.89,14.24,6.71a6.16,6.16,0,0,0,3.2-3.13,19.13,19.13,0,0,0,1-5.43,2.7,2.7,0,0,1,1.59.23c.32,1.81.31,5.8-.42,7.1a20.31,20.31,0,0,1-5.41,3.9c-8.79,4.42-16.17,2.77-20.45-5.75a12.86,12.86,0,0,1,1.09-13.88,19.61,19.61,0,0,1,7.14-5.66c3.06-1.54,6.48-2.57,8.29-3.38a50.56,50.56,0,0,0,2.67,6.87c0,.31-1.22,1-1.39.85C439.1,619.66,438.07,618.3,436,618.15Z" style="fill:#ffdf1b"/><path d="M471.78,628.08c-1.59.75-3.8,1.63-6.51,2.9-3.62,1.69-5.64,2.78-7,3.4a1.77,1.77,0,0,1-.63-1.35,21.16,21.16,0,0,0,2.36-1.59c.92-.72,1-1.31.34-3.12-1.72-4.1-5.19-11.4-8.09-17.61,0-.08-.23-.28-.35-.23a33.74,33.74,0,0,0-3.82,1.79,2.34,2.34,0,0,0-1.28,2.35,25.83,25.83,0,0,0,.15,4.05c-.1.19-1.45.53-1.7.31-.44-1.78-1.61-5.31-2.33-7.16,0-.08.11-.39.25-.41a12.92,12.92,0,0,0,3.91-1.2l14.09-6.59a16.86,16.86,0,0,0,4.27-2.58c.12-.06.35.13.39.21a55.46,55.46,0,0,0,2.28,7.37,3,3,0,0,1-1.44.77,19.28,19.28,0,0,0-2.45-3.17,1.78,1.78,0,0,0-2.13-.51,41.05,41.05,0,0,0-4.2,1.92.39.39,0,0,0,0,.39c2.64,5.65,7.26,15.62,8.55,18.08.39.74.87,1.44,1.85,1.37a15.74,15.74,0,0,0,2.89-.77A2.19,2.19,0,0,1,471.78,628.08Z" style="fill:#ffdf1b"/><path d="M480.24,620.62a14.76,14.76,0,0,1-6.33-8.65,12.85,12.85,0,0,1,1.16-10.62,15,15,0,0,1,9.25-7c8.79-2.52,15.15,2.14,17.19,9.24a14.82,14.82,0,0,1-.08,9.26,14.3,14.3,0,0,1-9.78,8.62C486.92,622.86,483.24,622.32,480.24,620.62Zm15-3.65c1.41-2.42,1-6.36-.07-9.95-1.22-4.27-3.65-8.55-6.93-10.12a6,6,0,0,0-4.45-.37,5.58,5.58,0,0,0-2.93,1.89c-1.87,2.41-1.64,6.23-.49,10.24,1.1,3.84,3.58,8.48,7.28,10.21a6.86,6.86,0,0,0,4.77.37A4.88,4.88,0,0,0,495.19,617Z" style="fill:#ffdf1b"/><path d="M504.47,590.37c1.05-.06,4.48-.1,6.15-.19,3.33-.17,5.74-.43,8.33-.57,5.4-.28,8.48,2.33,8.69,6.28.18,3.42-2,5.6-4.79,6.89a.46.46,0,0,0,0,.35,58.13,58.13,0,0,0,7.48,9.25c1.61,1.41,1.88,1.53,4.14,1.68a3.39,3.39,0,0,1-.22,1.6c-2.58.35-7.07.37-8.91-.33a6.61,6.61,0,0,1-2.29-1.73,81,81,0,0,1-5.65-7.93,1.5,1.5,0,0,0-1.31-.72L515,605c-.09,0-.17.18-.16.27.14,2.72.33,5.44.47,7.32.11,1.27.4,1.78,1.34,2a16.94,16.94,0,0,0,2.35.32c.22,0,.25,1.4,0,1.5-1,.05-3.08,0-6.54.21-3.64.19-5.61.42-6.53.47-.18-.17-.33-1.3-.12-1.49a17.25,17.25,0,0,0,2-.46c.91-.27,1.19-.85,1.16-2.22s-.25-7.29-.39-10c-.22-4.26-.36-6.93-.55-8.86-.11-1.18-.53-1.78-1.33-1.91a17.6,17.6,0,0,0-2.26-.28C504.23,591.62,504.26,590.47,504.47,590.37Zm10.07,1.54a1,1,0,0,0-.27.67c0,1,.13,4.22.43,10,0,.18.15.34.28.34a11.6,11.6,0,0,0,4.71-.77c1.11-.63,1.89-1.81,1.74-4.58-.19-3.64-2.34-6.08-5.72-5.91A3.69,3.69,0,0,0,514.54,591.92Z" style="fill:#ffdf1b"/><path d="M542.09,590.26c1.56.26,3.45.71,6.44,1.21,4.2.7,5.7.82,6.61,1a2.48,2.48,0,0,1-.25,1.47,17.87,17.87,0,0,0-2.33.06c-1,.19-1.16.79-1.41,2s-.78,4.41-1.4,8.14c-.87,5.25-1.44,8.4-1.64,10.11-.09.79-.21,1.79,1,2.3.49.26,1.55.57,2.39.89a2.45,2.45,0,0,1-.46,1.44c-1.77-.34-3.4-.7-6.48-1.21-3.9-.65-5.22-.74-6.87-1a1.77,1.77,0,0,1,.25-1.47c.93,0,1.56,0,2.05,0,1.17-.07,1.49-.38,1.91-2.09.34-1.5,1.17-6.49,1.75-10,.76-4.6,1.11-6.68,1.29-8.56a1.74,1.74,0,0,0-.79-2,17.23,17.23,0,0,0-2.31-.83A2.46,2.46,0,0,1,542.09,590.26Z" style="fill:#ffdf1b"/><path d="M560.59,616.06c4.44-4.33,11.51-11.94,13.75-14.42a15.69,15.69,0,0,0,2-2.49c.59.3,1.34.66,2.07,1s1.48.57,2.06.77l-.3,2.64c-.24,4.53-.91,15.07-1.05,19.25-.08,3.92,0,4.33,2.82,6.1a2.93,2.93,0,0,1-.74,1.31c-1-.43-2.74-1.3-5.86-2.61-3.4-1.43-4.71-1.84-6.25-2.49a3.43,3.43,0,0,1,.58-1.38,7.58,7.58,0,0,0,2.22.27.76.76,0,0,0,.73-.6,60.54,60.54,0,0,0,.47-6.33c0-.12-.12-.39-.29-.45-.63-.31-2-.85-3.08-1.3-1.62-.68-2.67-1.13-3.26-1.32a.81.81,0,0,0-.6.18,34.36,34.36,0,0,0-3.65,4.37,1.32,1.32,0,0,0,.57,1.81c.58.43,1.14.81,1.81,1.24a2.9,2.9,0,0,1-.7,1.33c-1.17-.5-2.7-1.28-5.05-2.27-1.5-.63-3.21-1.21-4.63-1.81a2.48,2.48,0,0,1,.58-1.38C557.83,618.19,558.55,618.07,560.59,616.06Zm13.31-11c-1.76,1.93-4.23,4.84-5.67,6.43-.11.14-.12.28,0,.32.43.23,1.2.55,2.29,1,1.34.56,2.31,1,2.73,1.1,0,0,.17-.07.21-.15.12-1.43.51-6.08.64-8.65C574,605.13,573.91,605,573.89,605.08Z" style="fill:#ffdf1b"/><path d="M402.14,78a8.46,8.46,0,0,0-3.12.57l-3.08,1.33-2.85,1.3-2.85.06c-1-.24-2.06-.46-3-.6a62.76,62.76,0,0,0-14.9-35.91c.48-.64,1-1.4,1.65-2.43l2.06-2,6-2.33a8.44,8.44,0,0,0,2.61-1.8,7.83,7.83,0,0,0,0-11.07,7.86,7.86,0,0,0-11.05,0,8.34,8.34,0,0,0-1.8,2.6l-1.24,3.12-1.09,2.93-2,2.06c-.87.55-1.71,1.09-2.45,1.64a62.79,62.79,0,0,0-35.86-14.84c-.11-.82-.29-1.76-.56-3l.06-2.86,2.63-5.92a8.49,8.49,0,0,0,.57-3.12,7.83,7.83,0,0,0-15.65,0,8.46,8.46,0,0,0,.57,3.11L318.17,14l1.3,2.84.06,2.85c-.22,1-.45,2-.59,3A62.79,62.79,0,0,0,283,37.62c-.66-.5-1.46-1-2.53-1.72l-2-2.06-2.33-6a8.51,8.51,0,0,0-1.8-2.6,7.83,7.83,0,0,0-11.07,11.07,8.46,8.46,0,0,0,2.6,1.8L269,39.29l2.93,1.09,2.06,2c.58.91,1.15,1.8,1.71,2.56a62.78,62.78,0,0,0-14.78,35.76c-.82.11-1.75.28-3,.57l-2.85-.06-5.92-2.63A8.43,8.43,0,0,0,246,78a7.83,7.83,0,0,0,0,15.65,8.46,8.46,0,0,0,3.12-.57l3.08-1.33,2.84-1.3,2.85-.06c1.05.24,2.08.46,3,.6a62.78,62.78,0,0,0,14.81,35.83c-.52.67-1.07,1.47-1.8,2.62l-2.06,2-6,2.33a8.45,8.45,0,0,0-2.61,1.8,7.83,7.83,0,0,0,11.07,11.07,8.43,8.43,0,0,0,1.8-2.6l1.24-3.12,1.09-2.93,2-2.06c1-.61,1.83-1.17,2.64-1.77A62.78,62.78,0,0,0,318.93,149c.11.81.29,1.74.56,2.95l-.06,2.85-2.63,5.92a8.44,8.44,0,0,0-.57,3.12,7.83,7.83,0,0,0,7.82,7.82h0a7.83,7.83,0,0,0,7.82-7.82,8.4,8.4,0,0,0-.57-3.12L330,157.67l-1.3-2.84-.05-2.85c.24-1.07.45-2,.58-2.94A62.79,62.79,0,0,0,365,134.23c.64.48,1.41,1,2.46,1.67l2,2.06,2.33,6a8.4,8.4,0,0,0,1.8,2.61,7.83,7.83,0,0,0,11.07-11.07,8.46,8.46,0,0,0-2.61-1.8l-3.12-1.24L376,131.42l-2.06-2c-.58-.91-1.11-1.73-1.64-2.46a62.76,62.76,0,0,0,14.94-36c.81-.11,1.74-.28,3-.57l2.86.06L399,93.12a8.41,8.41,0,0,0,3.12.57,7.83,7.83,0,0,0,0-15.66ZM296.6,119.37c.74-.71,5.5-5.26,7-6.58l.27-.25c1.57-1.43,5.75-5.22,9.67-5.22a5.78,5.78,0,0,1,1.65.24c4,2.11,4.36,9.25,4.48,11.6l0,.35c.1,2,.25,8.56.27,9.57l-1.58,2.9c-8.07-.61-17.57-5.22-22.64-9.39Zm6-42.29c-2.1,4.07-9.29,4.42-11.66,4.54l-.31,0c-2,.1-8.56.25-9.57.27l-2.9-1.58c.61-8.07,5.22-17.57,9.39-22.64l3.24.92c.71.74,5.26,5.49,6.58,7l.27.3C299.33,67.77,303.93,72.82,302.56,77.09Zm-21.5,12.79c1,0,7.61.16,9.57.27l.37,0c2.34.11,9.45.46,11.53,4.46,1.38,4.33-3.44,9.63-5,11.37l-.25.28c-1.32,1.46-5.87,6.23-6.58,7l-3.17.93c-5.28-6.14-8.73-16.11-9.37-22.65ZM319.63,52.6v.31c-.12,2.36-.46,9.56-4.48,11.64a5.48,5.48,0,0,1-1.66.25c-3.9,0-8.07-3.79-9.64-5.21l-.28-.26c-1.46-1.31-6.22-5.87-7-6.58l-.92-3.24c5.08-4.17,14.57-8.78,22.64-9.39l1.58,2.9C319.89,44,319.74,50.63,319.63,52.6Zm8.84,66.93,0-.32c.12-2.36.47-9.55,4.54-11.65h0a3.16,3.16,0,0,1,1.47-.32c3.69,0,9,4.63,10.06,5.56,1.46,1.31,6.22,5.87,7,6.58l.92,3.24c-5.08,4.17-14.57,8.78-22.64,9.39l-1.59-2.9C328.23,128.08,328.37,121.49,328.47,119.53ZM345.58,95c2.08-4,9-4.34,11.55-4.46l.39,0c2-.11,8.56-.25,9.57-.27l2.9,1.59c-.61,8.07-5.22,17.56-9.39,22.64l-3.24-.92c-.71-.74-5.26-5.5-6.58-7l-.24-.27C349,104.56,344.19,99.29,345.58,95Zm12-13.41h-.19c-6.83-.35-10.79-1.88-11.76-4.54l-.06-.16c-1.14-4.29,3.5-9.4,5-11.1l.24-.26c1.31-1.46,5.87-6.22,6.58-7l3.24-.92c4.17,5.08,8.78,14.57,9.39,22.64l-2.9,1.58C366.17,81.81,359.58,81.66,357.62,81.55ZM328.2,43l1.59-2.9c8.07.61,17.57,5.22,22.64,9.39l-.92,3.24c-.74.71-5.5,5.26-7,6.58l-.27.24c-1.57,1.43-5.76,5.22-9.68,5.22a5.68,5.68,0,0,1-1.66-.25c-4-2.11-4.35-9.24-4.46-11.58l0-.36C328.37,50.63,328.23,44,328.2,43Zm-3.94,57.33a14.11,14.11,0,1,1,14.11-14.11A14.13,14.13,0,0,1,324.26,100.35Z" style="fill:#efb310"/><path d="M436.28,201.08c-.5-2.07-4.26-8.66-6.51-12.48-1-2-4.1-5.2-9.77-5.4l-.89,0c-4.92,0-7.47,1.55-8.79,3a12.08,12.08,0,0,0-7.89-3l-.89,0c-5,0-7.51,1.57-8.82,3.06a12.08,12.08,0,0,0-7.92-3l-.89,0c-4.92,0-7.47,1.55-8.79,3a12.07,12.07,0,0,0-7.88-3l-.89,0c-4.88,0-7.43,1.52-8.77,3a12.09,12.09,0,0,0-7.84-3l-.89,0c-4.92,0-7.47,1.54-8.8,3a12.08,12.08,0,0,0-7.88-3l-.89,0c-5,0-7.51,1.57-8.82,3.06a12.07,12.07,0,0,0-7.92-3l-.89,0c-4.88,0-7.43,1.52-8.77,3a12.08,12.08,0,0,0-7.85-3l-.89,0c-4.88,0-7.43,1.52-8.76,3a12.09,12.09,0,0,0-7.85-3l-.89,0c-4.92,0-7.47,1.54-8.79,3a12.08,12.08,0,0,0-7.88-3l-.89,0c-4.88,0-7.43,1.52-8.76,3a12.08,12.08,0,0,0-7.85-3l-.89,0c-4.71,0-7.25,1.42-8.62,2.84a12.16,12.16,0,0,0-7.68-2.82l-.89,0c-5.49,0-8,1.93-9.21,3.55s-2,4-.15,7.79l.6,1.27c2.26,4.77,4.59,9.7,11.15,11.75a13.79,13.79,0,0,0,4.11.62h0a14.51,14.51,0,0,0,8.66-2.82,14.87,14.87,0,0,0,4.42,2.2,13.78,13.78,0,0,0,4.11.62h0a14.4,14.4,0,0,0,8.81-2.94,14.77,14.77,0,0,0,4.59,2.33,13.78,13.78,0,0,0,4.11.62h0a14.37,14.37,0,0,0,8.84-3,14.8,14.8,0,0,0,4.62,2.35,13.78,13.78,0,0,0,4.11.62h0a14.39,14.39,0,0,0,8.81-2.94,14.79,14.79,0,0,0,4.59,2.33,13.77,13.77,0,0,0,4.11.62h0a14.4,14.4,0,0,0,8.81-2.94,14.75,14.75,0,0,0,4.58,2.33,13.77,13.77,0,0,0,4.11.62h0a14.33,14.33,0,0,0,8.87-3,14.74,14.74,0,0,0,4.65,2.38,13.77,13.77,0,0,0,4.11.62h0a14.36,14.36,0,0,0,8.84-3,14.83,14.83,0,0,0,4.62,2.35,13.79,13.79,0,0,0,4.11.62,14.39,14.39,0,0,0,8.81-2.94,14.81,14.81,0,0,0,4.59,2.33,13.77,13.77,0,0,0,4.1.62h0a14.36,14.36,0,0,0,8.84-3,14.77,14.77,0,0,0,4.62,2.35,13.76,13.76,0,0,0,4.11.62h0a14.33,14.33,0,0,0,8.87-3,14.74,14.74,0,0,0,4.65,2.38,13.78,13.78,0,0,0,4.11.62h0a14.35,14.35,0,0,0,8.84-3,14.82,14.82,0,0,0,4.62,2.35,13.76,13.76,0,0,0,4.11.62h0c4.27,0,8.68-2,10.27-4.58l.71-1.17Z" style="fill:#efb310"/><path d="M239.27,201.84c-.87,1.44-5.28,3.66-9.62,2.3-5.37-1.68-7-6.13-9.41-11.06s1.57-6.48,6.46-6.3,6.37,3.39,6.37,3.39S238.82,199.92,239.27,201.84Z" style="fill:#00529c"/><path d="M256.46,201.84c-.87,1.44-5.28,3.66-9.62,2.3-5.37-1.68-7-6.13-9.41-11.06s1.57-6.48,6.47-6.3,6.37,3.39,6.37,3.39S256,199.92,256.46,201.84Z" style="fill:#00529c"/><path d="M274,201.84c-.87,1.44-5.28,3.66-9.62,2.3-5.37-1.68-7-6.13-9.41-11.06s1.57-6.48,6.46-6.3,6.37,3.39,6.37,3.39S273.51,199.92,274,201.84Z" style="fill:#ffdf1b"/><path d="M291.54,201.84c-.87,1.44-5.28,3.66-9.62,2.3-5.37-1.68-7-6.13-9.41-11.06s1.57-6.48,6.46-6.3,6.37,3.39,6.37,3.39S291.08,199.92,291.54,201.84Z" style="fill:#ffdf1b"/><path d="M309,201.84c-.87,1.44-5.28,3.66-9.62,2.3-5.37-1.68-7-6.13-9.41-11.06s1.57-6.48,6.46-6.3,6.37,3.39,6.37,3.39S308.58,199.92,309,201.84Z" style="fill:#00529c"/><path d="M326.54,201.84c-.87,1.44-5.28,3.66-9.62,2.3-5.37-1.68-7-6.13-9.41-11.06s1.57-6.48,6.47-6.3,6.37,3.39,6.37,3.39S326.09,199.92,326.54,201.84Z" style="fill:#00529c"/><path d="M344.18,201.84c-.87,1.44-5.28,3.66-9.62,2.3-5.37-1.68-7-6.13-9.41-11.06s1.57-6.48,6.46-6.3,6.37,3.39,6.37,3.39S343.72,199.92,344.18,201.84Z" style="fill:#ffdf1b"/><path d="M361.74,201.84c-.87,1.44-5.27,3.66-9.62,2.3-5.37-1.68-7-6.13-9.41-11.06s1.57-6.48,6.46-6.3,6.37,3.39,6.37,3.39S361.29,199.92,361.74,201.84Z" style="fill:#ffdf1b"/><path d="M414.45,201.84c-.87,1.44-5.27,3.66-9.62,2.3-5.37-1.68-7-6.13-9.41-11.06s1.57-6.48,6.47-6.3,6.37,3.39,6.37,3.39S414,199.92,414.45,201.84Z" style="fill:#ffdf1b"/><path d="M432,201.84c-.87,1.44-5.27,3.66-9.62,2.3-5.37-1.68-7-6.13-9.41-11.06s1.57-6.48,6.47-6.3,6.37,3.39,6.37,3.39S431.56,199.92,432,201.84Z" style="fill:#ffdf1b"/><path d="M379.25,201.84c-.87,1.44-5.27,3.66-9.62,2.3-5.38-1.68-7-6.13-9.41-11.06s1.57-6.48,6.47-6.3,6.37,3.39,6.37,3.39S378.79,199.92,379.25,201.84Z" style="fill:#00529c"/><path d="M396.82,201.84c-.87,1.44-5.27,3.66-9.62,2.3-5.37-1.68-7-6.13-9.41-11.06s1.57-6.48,6.46-6.3,6.37,3.39,6.37,3.39S396.36,199.92,396.82,201.84Z" style="fill:#00529c"/></svg>